<?xml version="1.0" encoding="UTF-8" standalone="no"?>
<!DOCTYPE svg PUBLIC "-//W3C//DTD SVG 1.1//EN"
 "http://www.w3.org/Graphics/SVG/1.1/DTD/svg11.dtd">
<!-- Generated by graphviz version 12.0.0 (20240704.0754)
 -->
<!-- Title: Editor_Entities_Order Pages: 1 -->
<svg width="870pt" height="316pt"
 viewBox="0.00 0.00 870.25 316.25" xmlns="http://www.w3.org/2000/svg" xmlns:xlink="http://www.w3.org/1999/xlink">
<g id="graph0" class="graph" transform="scale(1 1) rotate(0) translate(4 312.25)">
<title>Editor_Entities_Order</title>
<polygon fill="white" stroke="none" points="-4,4 -4,-312.25 866.25,-312.25 866.25,4 -4,4"/>
<g id="clust3" class="cluster">
<title>cluster_SCR_BaseGameMode</title>
<g id="a_clust3"><a xlink:href="interfaceSCR__BaseGameMode.html" target="_top" xlink:title="SCR_BaseGameMode">
<polygon fill="#d9d9d9" stroke="#d9d9d9" points="145.25,-242 145.25,-300.25 289.25,-300.25 289.25,-242 145.25,-242"/>
<text text-anchor="middle" x="217.25" y="-284.85" font-family="sans-serif" font-size="12.00">SCR_BaseGameMode</text>
</a>
</g>
</g>
<g id="clust4" class="cluster">
<title>cluster_SCR_EditorManagerCore</title>
<g id="a_clust4"><a xlink:href="interfaceSCR__EditorManagerCore.html" target="_top" xlink:title="SCR_EditorManagerCore">
<polygon fill="#d9d9d9" stroke="#d9d9d9" points="297.25,-168 297.25,-300.25 495.25,-300.25 495.25,-168 297.25,-168"/>
<text text-anchor="middle" x="396.25" y="-284.85" font-family="sans-serif" font-size="12.00">SCR_EditorManagerCore</text>
</a>
</g>
</g>
<g id="clust5" class="cluster">
<title>cluster_SCR_EditorManagerEntity</title>
<g id="a_clust5"><a xlink:href="interfaceSCR__EditorManagerEntity.html" target="_top" xlink:title="SCR_EditorManagerEntity">
<polygon fill="#d9d9d9" stroke="#d9d9d9" points="503.25,-8 503.25,-300.25 654.25,-300.25 654.25,-8 503.25,-8"/>
<text text-anchor="middle" x="578.75" y="-284.85" font-family="sans-serif" font-size="12.00">SCR_EditorManagerEntity</text>
</a>
</g>
</g>
<g id="clust6" class="cluster">
<title>cluster_SCR_EditorModeEntity</title>
<g id="a_clust6"><a xlink:href="interfaceSCR__EditorModeEntity.html" target="_top" xlink:title="SCR_EditorModeEntity">
<polygon fill="#d9d9d9" stroke="#d9d9d9" points="662.25,-88 662.25,-146.25 812.25,-146.25 812.25,-88 662.25,-88"/>
<text text-anchor="middle" x="737.25" y="-130.85" font-family="sans-serif" font-size="12.00">SCR_EditorModeEntity</text>
</a>
</g>
</g>
<g id="clust7" class="cluster">
<title>cluster_Legend</title>
<polygon fill="white" stroke="#7f7f7f" points="662.25,-242 662.25,-300.25 854.25,-300.25 854.25,-242 662.25,-242"/>
<text text-anchor="middle" x="758.25" y="-284.85" font-family="sans-serif" font-size="12.00">Legend</text>
</g>
<!-- label_1 -->
<g id="node1" class="node">
<title>label_1</title>
<polygon fill="white" stroke="none" points="135.25,-276 23.25,-276 23.25,-244 135.25,-244 135.25,-276"/>
<text text-anchor="middle" x="79.25" y="-262.5" font-family="sans-serif" font-size="10.00">Player joins,</text>
<text text-anchor="middle" x="79.25" y="-250.5" font-family="sans-serif" font-size="10.00">create editor manager</text>
</g>
<!-- label_2 -->
<g id="node2" class="node">
<title>label_2</title>
<polygon fill="white" stroke="none" points="140.88,-208 17.62,-208 17.62,-164 140.88,-164 140.88,-208"/>
<text text-anchor="middle" x="79.25" y="-194.5" font-family="sans-serif" font-size="10.00">Call custom event</text>
<text text-anchor="middle" x="79.25" y="-182.5" font-family="sans-serif" font-size="10.00">(used by the game mode</text>
<text text-anchor="middle" x="79.25" y="-170.5" font-family="sans-serif" font-size="10.00">or other systems)</text>
</g>
<!-- label_1&#45;&gt;label_2 -->
<g id="edge1" class="edge">
<title>label_1&#45;&gt;label_2</title>
<path fill="none" stroke="black" d="M79.25,-244.31C79.25,-244.31 79.25,-219.36 79.25,-219.36"/>
<polygon fill="black" stroke="black" points="82.75,-219.36 79.25,-209.36 75.75,-219.36 82.75,-219.36"/>
</g>
<!-- label_3 -->
<g id="node3" class="node">
<title>label_3</title>
<polygon fill="white" stroke="none" points="158.5,-128 0,-128 0,-84 158.5,-84 158.5,-128"/>
<text text-anchor="middle" x="79.25" y="-114.5" font-family="sans-serif" font-size="10.00">Create editor modes</text>
<text text-anchor="middle" x="79.25" y="-102.5" font-family="sans-serif" font-size="10.00">(either specific ones in the Event,</text>
<text text-anchor="middle" x="79.25" y="-90.5" font-family="sans-serif" font-size="10.00">or default ones afterwards)</text>
</g>
<!-- label_2&#45;&gt;label_3 -->
<g id="edge2" class="edge">
<title>label_2&#45;&gt;label_3</title>
<path fill="none" stroke="black" d="M79.25,-164.14C79.25,-164.14 79.25,-139.35 79.25,-139.35"/>
<polygon fill="black" stroke="black" points="82.75,-139.35 79.25,-129.35 75.75,-139.35 82.75,-139.35"/>
</g>
<!-- label_4 -->
<g id="node4" class="node">
<title>label_4</title>
<polygon fill="white" stroke="none" points="132.25,-48 26.25,-48 26.25,-4 132.25,-4 132.25,-48"/>
<text text-anchor="middle" x="79.25" y="-34.5" font-family="sans-serif" font-size="10.00">Set current mode</text>
<text text-anchor="middle" x="79.25" y="-22.5" font-family="sans-serif" font-size="10.00">and auto&#45;open editor</text>
<text text-anchor="middle" x="79.25" y="-10.5" font-family="sans-serif" font-size="10.00">(when enabled)</text>
</g>
<!-- label_3&#45;&gt;label_4 -->
<g id="edge3" class="edge">
<title>label_3&#45;&gt;label_4</title>
<path fill="none" stroke="black" d="M79.25,-84.14C79.25,-84.14 79.25,-59.35 79.25,-59.35"/>
<polygon fill="black" stroke="black" points="82.75,-59.35 79.25,-49.35 75.75,-59.35 82.75,-59.35"/>
</g>
<!-- Event_OnPlayerConnected -->
<g id="node5" class="node">
<title>Event_OnPlayerConnected</title>
<polygon fill="white" stroke="black" points="281.12,-270 153.38,-270 153.38,-250 281.12,-250 281.12,-270"/>
<text text-anchor="middle" x="217.25" y="-256.5" font-family="sans-serif" font-size="10.00">Event_OnPlayerConnected</text>
</g>
<!-- CreateEditorManager -->
<g id="node6" class="node">
<title>CreateEditorManager</title>
<polygon fill="white" stroke="black" points="449.62,-270 342.88,-270 342.88,-250 449.62,-250 449.62,-270"/>
<text text-anchor="middle" x="396.25" y="-256.5" font-family="sans-serif" font-size="10.00">CreateEditorManager</text>
</g>
<!-- Event_OnPlayerConnected&#45;&gt;CreateEditorManager -->
<g id="edge4" class="edge">
<title>Event_OnPlayerConnected&#45;&gt;CreateEditorManager</title>
<path fill="none" stroke="black" d="M281.62,-260C281.62,-260 330.96,-260 330.96,-260"/>
<polygon fill="black" stroke="black" points="330.96,-263.5 340.96,-260 330.96,-256.5 330.96,-263.5"/>
</g>
<!-- Manager_InitServer -->
<g id="node8" class="node">
<title>Manager_InitServer</title>
<polygon fill="white" stroke="black" points="569.25,-270 511.25,-270 511.25,-250 569.25,-250 569.25,-270"/>
<text text-anchor="middle" x="540.25" y="-256.5" font-family="sans-serif" font-size="10.00">InitServer</text>
</g>
<!-- CreateEditorManager&#45;&gt;Manager_InitServer -->
<g id="edge5" class="edge">
<title>CreateEditorManager&#45;&gt;Manager_InitServer</title>
<path fill="none" stroke="black" d="M449.87,-263.33C449.87,-263.33 499.31,-263.33 499.31,-263.33"/>
<polygon fill="black" stroke="black" points="499.31,-266.83 509.31,-263.33 499.31,-259.83 499.31,-266.83"/>
</g>
<!-- Event_OnEditorManagerCreatedServer -->
<g id="node7" class="node">
<title>Event_OnEditorManagerCreatedServer</title>
<polygon fill="white" stroke="black" points="486.75,-196 305.75,-196 305.75,-176 486.75,-176 486.75,-196"/>
<text text-anchor="middle" x="396.25" y="-182.5" font-family="sans-serif" font-size="10.00">Event_OnEditorManagerCreatedServer</text>
</g>
<!-- CreateEditorMode -->
<g id="node11" class="node">
<title>CreateEditorMode</title>
<polygon fill="white" stroke="black" points="646.5,-116 554,-116 554,-96 646.5,-96 646.5,-116"/>
<text text-anchor="middle" x="600.25" y="-102.5" font-family="sans-serif" font-size="10.00">CreateEditorMode</text>
</g>
<!-- Event_OnEditorManagerCreatedServer&#45;&gt;CreateEditorMode -->
<g id="edge8" class="edge">
<title>Event_OnEditorManagerCreatedServer&#45;&gt;CreateEditorMode</title>
<path fill="none" stroke="black" d="M487.16,-186C525.59,-186 561.62,-186 561.62,-186 561.62,-186 561.62,-127.97 561.62,-127.97"/>
<polygon fill="black" stroke="black" points="565.13,-127.97 561.63,-117.97 558.13,-127.97 565.13,-127.97"/>
</g>
<!-- Manager_InitServer&#45;&gt;Event_OnEditorManagerCreatedServer -->
<g id="edge7" class="edge">
<title>Manager_InitServer&#45;&gt;Event_OnEditorManagerCreatedServer</title>
<path fill="none" stroke="black" d="M510.94,-256.67C490.99,-256.67 468.19,-256.67 468.19,-256.67 468.19,-256.67 468.19,-207.94 468.19,-207.94"/>
<polygon fill="black" stroke="black" points="471.69,-207.94 468.19,-197.94 464.69,-207.94 471.69,-207.94"/>
</g>
<!-- Manager_InitOwner -->
<g id="node9" class="node">
<title>Manager_InitOwner</title>
<polygon fill="plum" stroke="black" points="645.25,-270 587.25,-270 587.25,-250 645.25,-250 645.25,-270"/>
<text text-anchor="middle" x="616.25" y="-256.5" font-family="sans-serif" font-size="10.00">InitOwner</text>
</g>
<!-- Manager_InitServer&#45;&gt;Manager_InitOwner -->
<g id="edge6" class="edge">
<title>Manager_InitServer&#45;&gt;Manager_InitOwner</title>
<path fill="none" stroke="black" d="M569.42,-260C569.42,-260 575.27,-260 575.27,-260"/>
<polygon fill="black" stroke="black" points="575.27,-263.5 585.27,-260 575.27,-256.5 575.27,-263.5"/>
</g>
<!-- Manager_PostInitServer -->
<g id="node10" class="node">
<title>Manager_PostInitServer</title>
<polygon fill="white" stroke="black" points="646.25,-36 570.25,-36 570.25,-16 646.25,-16 646.25,-36"/>
<text text-anchor="middle" x="608.25" y="-22.5" font-family="sans-serif" font-size="10.00">PostInitServer</text>
</g>
<!-- Mode_InitServer -->
<g id="node12" class="node">
<title>Mode_InitServer</title>
<polygon fill="white" stroke="black" points="728.25,-116 670.25,-116 670.25,-96 728.25,-96 728.25,-116"/>
<text text-anchor="middle" x="699.25" y="-102.5" font-family="sans-serif" font-size="10.00">InitServer</text>
</g>
<!-- CreateEditorMode&#45;&gt;Mode_InitServer -->
<g id="edge9" class="edge">
<title>CreateEditorMode&#45;&gt;Mode_InitServer</title>
<path fill="none" stroke="black" d="M646.85,-106C646.85,-106 658.31,-106 658.31,-106"/>
<polygon fill="black" stroke="black" points="658.31,-109.5 668.31,-106 658.31,-102.5 658.31,-109.5"/>
</g>
<!-- Mode_InitServer&#45;&gt;Manager_PostInitServer -->
<g id="edge11" class="edge">
<title>Mode_InitServer&#45;&gt;Manager_PostInitServer</title>
<path fill="none" stroke="black" d="M699.25,-95.54C699.25,-73.86 699.25,-26 699.25,-26 699.25,-26 658.09,-26 658.09,-26"/>
<polygon fill="black" stroke="black" points="658.09,-22.5 648.09,-26 658.09,-29.5 658.09,-22.5"/>
</g>
<!-- Mode_InitOwner -->
<g id="node13" class="node">
<title>Mode_InitOwner</title>
<polygon fill="plum" stroke="black" points="804.25,-116 746.25,-116 746.25,-96 804.25,-96 804.25,-116"/>
<text text-anchor="middle" x="775.25" y="-102.5" font-family="sans-serif" font-size="10.00">InitOwner</text>
</g>
<!-- Mode_InitServer&#45;&gt;Mode_InitOwner -->
<g id="edge10" class="edge">
<title>Mode_InitServer&#45;&gt;Mode_InitOwner</title>
<path fill="none" stroke="black" d="M728.42,-106C728.42,-106 734.27,-106 734.27,-106"/>
<polygon fill="black" stroke="black" points="734.27,-109.5 744.27,-106 734.27,-102.5 734.27,-109.5"/>
</g>
<!-- Legend_Client -->
<g id="node14" class="node">
<title>Legend_Client</title>
<polygon fill="plum" stroke="black" points="746.62,-270 669.88,-270 669.88,-250 746.62,-250 746.62,-270"/>
<text text-anchor="middle" x="708.25" y="-256.5" font-family="sans-serif" font-size="10.00">Client function</text>
</g>
<!-- Legend_Server -->
<g id="node15" class="node">
<title>Legend_Server</title>
<polygon fill="white" stroke="black" points="845.88,-270 764.62,-270 764.62,-250 845.88,-250 845.88,-270"/>
<text text-anchor="middle" x="805.25" y="-256.5" font-family="sans-serif" font-size="10.00">Server function</text>
</g>
</g>
</svg>
