<?xml version="1.0" encoding="UTF-8" standalone="no"?>
<!DOCTYPE svg PUBLIC "-//W3C//DTD SVG 1.1//EN"
 "http://www.w3.org/Graphics/SVG/1.1/DTD/svg11.dtd">
<!-- Generated by graphviz version 12.0.0 (20240704.0754)
 -->
<!-- Title: G Pages: 1 -->
<svg width="480pt" height="268pt"
 viewBox="0.00 0.00 480.00 268.00" xmlns="http://www.w3.org/2000/svg" xmlns:xlink="http://www.w3.org/1999/xlink">
<g id="graph0" class="graph" transform="scale(1 1) rotate(0) translate(4 264)">
<title>G</title>
<polygon fill="white" stroke="none" points="-4,4 -4,-264 476,-264 476,4 -4,4"/>
<g id="clust1" class="cluster">
<title>clusterA</title>
<polygon fill="none" stroke="black" points="8,-8 8,-252 464,-252 464,-8 8,-8"/>
<text text-anchor="middle" x="236" y="-238.5" font-family="Helvetica,sans-Serif" font-size="10.00">UNLOCKED</text>
</g>
<g id="clust2" class="cluster">
<title>clusterB</title>
<polygon fill="none" stroke="black" points="24,-24 24,-216 448,-216 448,-24 24,-24"/>
<text text-anchor="middle" x="236" y="-202.5" font-family="Helvetica,sans-Serif" font-size="10.00">VISIBLE</text>
</g>
<g id="clust3" class="cluster">
<title>clusterC</title>
<polygon fill="none" stroke="black" points="40,-40 40,-180 360,-180 360,-40 40,-40"/>
<text text-anchor="middle" x="200" y="-166.5" font-family="Helvetica,sans-Serif" font-size="10.00">ACTIVE</text>
</g>
<g id="clust4" class="cluster">
<title>clusterD</title>
<polygon fill="none" stroke="black" points="56,-56 56,-144 158,-144 158,-56 56,-56"/>
<text text-anchor="middle" x="107" y="-130.5" font-family="Helvetica,sans-Serif" font-size="10.00">INTERACTIVE</text>
</g>
<g id="clust5" class="cluster">
<title>clusterE</title>
<polygon fill="none" stroke="black" points="174,-56 174,-144 260,-144 260,-56 174,-56"/>
<text text-anchor="middle" x="217" y="-130.5" font-family="Helvetica,sans-Serif" font-size="10.00">FOCUSED</text>
</g>
<!-- PLAYER -->
<g id="node1" class="node">
<title>PLAYER</title>
<polygon fill="none" stroke="black" points="431.5,-108 376.5,-108 376.5,-72 431.5,-72 431.5,-108"/>
<text text-anchor="middle" x="404" y="-86.5" font-family="Helvetica,sans-Serif" font-size="10.00">PLAYER</text>
</g>
<!-- RENDERED -->
<g id="node2" class="node">
<title>RENDERED</title>
<polygon fill="none" stroke="black" points="142,-108 72,-108 72,-72 142,-72 142,-108"/>
<text text-anchor="middle" x="107" y="-86.5" font-family="Helvetica,sans-Serif" font-size="10.00">RENDERED</text>
</g>
<!-- SELECTED -->
<g id="node3" class="node">
<title>SELECTED</title>
<polygon fill="none" stroke="black" points="343.5,-108 276.5,-108 276.5,-72 343.5,-72 343.5,-108"/>
<text text-anchor="middle" x="310" y="-86.5" font-family="Helvetica,sans-Serif" font-size="10.00">SELECTED</text>
</g>
<!-- HOVER -->
<g id="node4" class="node">
<title>HOVER</title>
<polygon fill="none" stroke="black" points="244,-108 190,-108 190,-72 244,-72 244,-108"/>
<text text-anchor="middle" x="217" y="-86.5" font-family="Helvetica,sans-Serif" font-size="10.00">HOVER</text>
</g>
</g>
</svg>
