<?xml version="1.0" encoding="UTF-8" standalone="no"?>
<!DOCTYPE svg PUBLIC "-//W3C//DTD SVG 1.1//EN"
 "http://www.w3.org/Graphics/SVG/1.1/DTD/svg11.dtd">
<!-- Generated by graphviz version 12.0.0 (20240704.0754)
 -->
<!-- Title: states Pages: 1 -->
<svg width="379pt" height="117pt"
 viewBox="0.00 0.00 378.62 117.00" xmlns="http://www.w3.org/2000/svg" xmlns:xlink="http://www.w3.org/1999/xlink">
<g id="graph0" class="graph" transform="scale(1 1) rotate(0) translate(4 113)">
<title>states</title>
<polygon fill="white" stroke="none" points="-4,4 -4,-113 374.62,-113 374.62,4 -4,4"/>
<!-- replication -->
<g id="node1" class="node">
<title>replication</title>
<polygon fill="none" stroke="black" points="102.25,-36 0,-36 0,0 102.25,0 102.25,-36"/>
<text text-anchor="middle" x="51.12" y="-12.57" font-family="Times New Roman,serif" font-size="14.00">enf::Replication</text>
</g>
<!-- rplNode -->
<g id="node2" class="node">
<title>rplNode</title>
<polygon fill="none" stroke="black" points="256.25,-36 166,-36 166,0 256.25,0 256.25,-36"/>
<text text-anchor="middle" x="211.12" y="-12.57" font-family="Times New Roman,serif" font-size="14.00">enf::RplNode</text>
</g>
<!-- replication&#45;&gt;rplNode -->
<g id="edge1" class="edge">
<title>replication&#45;&gt;rplNode</title>
<path fill="none" stroke="black" stroke-dasharray="5,2" d="M102.63,-18C119.11,-18 137.44,-18 154.28,-18"/>
<polygon fill="black" stroke="black" points="154.14,-21.5 164.14,-18 154.14,-14.5 154.14,-21.5"/>
<text text-anchor="middle" x="134.12" y="-1.7" font-family="Times New Roman,serif" font-size="14.00">Register</text>
</g>
<!-- userItem -->
<g id="node4" class="node">
<title>userItem</title>
<polygon fill="none" stroke="black" points="358.62,-36 291.62,-36 291.62,0 358.62,0 358.62,-36"/>
<text text-anchor="middle" x="325.12" y="-12.57" font-family="Times New Roman,serif" font-size="14.00">UserItem</text>
</g>
<!-- rplNode&#45;&gt;userItem -->
<g id="edge3" class="edge">
<title>rplNode&#45;&gt;userItem</title>
<path fill="none" stroke="black" d="M256.55,-18C264.35,-18 272.15,-18 279.94,-18"/>
<polygon fill="black" stroke="black" points="279.86,-21.5 289.86,-18 279.86,-14.5 279.86,-21.5"/>
</g>
<!-- baseItem -->
<g id="node3" class="node">
<title>baseItem</title>
<polygon fill="none" stroke="black" points="370.62,-109 279.62,-109 279.62,-73 370.62,-73 370.62,-109"/>
<text text-anchor="middle" x="325.12" y="-85.58" font-family="Times New Roman,serif" font-size="14.00">enf::BaseItem</text>
</g>
<!-- userItem&#45;&gt;baseItem -->
<g id="edge2" class="edge">
<title>userItem&#45;&gt;baseItem</title>
<path fill="none" stroke="black" d="M325.12,-36.19C325.12,-43.77 325.12,-52.9 325.12,-61.46"/>
<polygon fill="none" stroke="black" points="321.63,-61.46 325.13,-71.46 328.63,-61.46 321.63,-61.46"/>
</g>
</g>
</svg>
