<?xml version="1.0" encoding="UTF-8" standalone="no"?>
<!DOCTYPE svg PUBLIC "-//W3C//DTD SVG 1.1//EN"
 "http://www.w3.org/Graphics/SVG/1.1/DTD/svg11.dtd">
<!-- Generated by graphviz version 12.0.0 (20240704.0754)
 -->
<!-- Title: g Pages: 1 -->
<svg width="345pt" height="225pt"
 viewBox="0.00 0.00 345.00 225.00" xmlns="http://www.w3.org/2000/svg" xmlns:xlink="http://www.w3.org/1999/xlink">
<g id="graph0" class="graph" transform="scale(1 1) rotate(0) translate(4 221)">
<title>g</title>
<polygon fill="white" stroke="none" points="-4,4 -4,-221 341,-221 341,4 -4,4"/>
<g id="clust1" class="cluster">
<title>cluster_EntityHierarchy</title>
<polygon fill="none" stroke="black" points="8,-8 8,-209 174,-209 174,-8 8,-8"/>
<text text-anchor="middle" x="91" y="-191.7" font-family="Helvetica,sans-Serif" font-size="14.00">Entity hierarchy (prefab)</text>
</g>
<g id="clust2" class="cluster">
<title>cluster_RplHierarchy</title>
<polygon fill="none" stroke="black" points="182,-112.75 182,-190.25 329,-190.25 329,-112.75 182,-112.75"/>
<text text-anchor="middle" x="255.5" y="-172.95" font-family="Helvetica,sans-Serif" font-size="14.00">Replication hierarchy</text>
</g>
<!-- entA -->
<g id="node1" class="node">
<title>entA</title>
<polygon fill="none" stroke="black" points="64,-102.5 64,-176 118,-176 118,-102.5 64,-102.5"/>
<text text-anchor="middle" x="77.88" y="-134.2" font-family="Helvetica,sans-Serif" font-size="14.00">A</text>
<polyline fill="none" stroke="black" points="91.75,-102.5 91.75,-176"/>
<text text-anchor="middle" x="104.88" y="-158.7" font-family="Helvetica,sans-Serif" font-size="14.00">a</text>
<polyline fill="none" stroke="black" points="91.75,-151.5 118,-151.5"/>
<text text-anchor="middle" x="104.88" y="-134.2" font-family="Helvetica,sans-Serif" font-size="14.00">b</text>
<polyline fill="none" stroke="black" points="91.75,-127 118,-127"/>
<text text-anchor="middle" x="104.88" y="-109.7" font-family="Helvetica,sans-Serif" font-size="14.00">c</text>
</g>
<!-- entB -->
<g id="node2" class="node">
<title>entB</title>
<polygon fill="lightblue" stroke="black" points="16.12,-16.5 16.12,-65.5 165.88,-65.5 165.88,-16.5 16.12,-16.5"/>
<text text-anchor="middle" x="29" y="-35.95" font-family="Helvetica,sans-Serif" font-size="14.00">B</text>
<polyline fill="none" stroke="black" points="41.88,-16.5 41.88,-65.5"/>
<text text-anchor="middle" x="103.88" y="-48.2" font-family="Helvetica,sans-Serif" font-size="14.00">r: RplComponent</text>
<polyline fill="none" stroke="black" points="41.88,-41 165.88,-41"/>
<text text-anchor="middle" x="103.88" y="-23.7" font-family="Helvetica,sans-Serif" font-size="14.00">e</text>
</g>
<!-- entA&#45;&gt;entB -->
<g id="edge1" class="edge">
<title>entA&#45;&gt;entB</title>
<path fill="none" stroke="black" d="M91,-90.81C91,-82.11 91,-73.38 91,-65.76"/>
<polygon fill="black" stroke="black" points="87.5,-90.62 91,-100.62 94.5,-90.62 87.5,-90.62"/>
</g>
<!-- nodeA -->
<g id="node3" class="node">
<title>nodeA</title>
<polygon fill="lightblue" stroke="black" points="219.75,-121.25 219.75,-157.25 290.25,-157.25 290.25,-121.25 219.75,-121.25"/>
<text text-anchor="middle" x="230" y="-134.2" font-family="Helvetica,sans-Serif" font-size="14.00">r</text>
<polyline fill="none" stroke="black" points="240.25,-121.25 240.25,-157.25"/>
<text text-anchor="middle" x="253.12" y="-134.2" font-family="Helvetica,sans-Serif" font-size="14.00">B</text>
<polyline fill="none" stroke="black" points="266,-121.25 266,-157.25"/>
<text text-anchor="middle" x="278.12" y="-134.2" font-family="Helvetica,sans-Serif" font-size="14.00">e</text>
</g>
</g>
</svg>
