<?xml version="1.0" encoding="UTF-8" standalone="no"?>
<!DOCTYPE svg PUBLIC "-//W3C//DTD SVG 1.1//EN"
 "http://www.w3.org/Graphics/SVG/1.1/DTD/svg11.dtd">
<!-- Generated by graphviz version 12.0.0 (20240704.0754)
 -->
<!-- Title: g Pages: 1 -->
<svg width="374pt" height="287pt"
 viewBox="0.00 0.00 374.00 286.50" xmlns="http://www.w3.org/2000/svg" xmlns:xlink="http://www.w3.org/1999/xlink">
<g id="graph0" class="graph" transform="scale(1 1) rotate(0) translate(4 282.5)">
<title>g</title>
<polygon fill="white" stroke="none" points="-4,4 -4,-282.5 370,-282.5 370,4 -4,4"/>
<g id="clust1" class="cluster">
<title>cluster_EntityHierarchy</title>
<polygon fill="none" stroke="black" points="8,-8 8,-270.5 182,-270.5 182,-8 8,-8"/>
<text text-anchor="middle" x="95" y="-253.2" font-family="Helvetica,sans-Serif" font-size="14.00">Entity hierarchy</text>
</g>
<g id="clust2" class="cluster">
<title>cluster_RplHierarchy</title>
<polygon fill="none" stroke="black" points="190,-100.5 190,-264 358,-264 358,-100.5 190,-100.5"/>
<text text-anchor="middle" x="274" y="-246.7" font-family="Helvetica,sans-Serif" font-size="14.00">Replication hierarchy</text>
</g>
<!-- entA -->
<g id="node1" class="node">
<title>entA</title>
<polygon fill="lightblue" stroke="black" points="16,-188.5 16,-237.5 174,-237.5 174,-188.5 16,-188.5"/>
<text text-anchor="middle" x="28.88" y="-207.95" font-family="Helvetica,sans-Serif" font-size="14.00">A</text>
<polyline fill="none" stroke="black" points="41.75,-188.5 41.75,-237.5"/>
<text text-anchor="middle" x="107.88" y="-220.2" font-family="Helvetica,sans-Serif" font-size="14.00">r1: RplComponent</text>
<polyline fill="none" stroke="black" points="41.75,-213 174,-213"/>
<text text-anchor="middle" x="107.88" y="-195.7" font-family="Helvetica,sans-Serif" font-size="14.00">a</text>
</g>
<!-- entB -->
<g id="node2" class="node">
<title>entB</title>
<polygon fill="lightblue" stroke="black" points="68,-102.5 68,-151.5 122,-151.5 122,-102.5 68,-102.5"/>
<text text-anchor="middle" x="81.88" y="-121.95" font-family="Helvetica,sans-Serif" font-size="14.00">B</text>
<polyline fill="none" stroke="black" points="95.75,-102.5 95.75,-151.5"/>
<text text-anchor="middle" x="108.88" y="-134.2" font-family="Helvetica,sans-Serif" font-size="14.00">b</text>
<polyline fill="none" stroke="black" points="95.75,-127 122,-127"/>
<text text-anchor="middle" x="108.88" y="-109.7" font-family="Helvetica,sans-Serif" font-size="14.00">c</text>
</g>
<!-- entA&#45;&gt;entB -->
<g id="edge1" class="edge">
<title>entA&#45;&gt;entB</title>
<path fill="none" stroke="black" d="M95,-176.72C95,-168.35 95,-159.63 95,-151.91"/>
<polygon fill="black" stroke="black" points="91.5,-176.64 95,-186.64 98.5,-176.64 91.5,-176.64"/>
</g>
<!-- entC -->
<g id="node3" class="node">
<title>entC</title>
<polygon fill="lightcoral" stroke="black" points="15.62,-16.5 15.62,-65.5 174.38,-65.5 174.38,-16.5 15.62,-16.5"/>
<text text-anchor="middle" x="28.88" y="-35.95" font-family="Helvetica,sans-Serif" font-size="14.00">C</text>
<polyline fill="none" stroke="black" points="42.12,-16.5 42.12,-65.5"/>
<text text-anchor="middle" x="108.25" y="-48.2" font-family="Helvetica,sans-Serif" font-size="14.00">r2: RplComponent</text>
<polyline fill="none" stroke="black" points="42.12,-41 174.38,-41"/>
<text text-anchor="middle" x="108.25" y="-23.7" font-family="Helvetica,sans-Serif" font-size="14.00">d</text>
</g>
<!-- entB&#45;&gt;entC -->
<g id="edge2" class="edge">
<title>entB&#45;&gt;entC</title>
<path fill="none" stroke="black" d="M95,-90.72C95,-82.35 95,-73.63 95,-65.91"/>
<polygon fill="black" stroke="black" points="91.5,-90.64 95,-100.64 98.5,-90.64 91.5,-90.64"/>
</g>
<!-- nodeR1 -->
<g id="node4" class="node">
<title>nodeR1</title>
<polygon fill="lightblue" stroke="black" points="198.25,-195 198.25,-231 349.75,-231 349.75,-195 198.25,-195"/>
<text text-anchor="middle" x="212.62" y="-207.95" font-family="Helvetica,sans-Serif" font-size="14.00">r1</text>
<polyline fill="none" stroke="black" points="227,-195 227,-231"/>
<text text-anchor="middle" x="239.88" y="-207.95" font-family="Helvetica,sans-Serif" font-size="14.00">A</text>
<polyline fill="none" stroke="black" points="252.75,-195 252.75,-231"/>
<text text-anchor="middle" x="264.5" y="-207.95" font-family="Helvetica,sans-Serif" font-size="14.00">a</text>
<polyline fill="none" stroke="black" points="276.25,-195 276.25,-231"/>
<text text-anchor="middle" x="289.12" y="-207.95" font-family="Helvetica,sans-Serif" font-size="14.00">B</text>
<polyline fill="none" stroke="black" points="302,-195 302,-231"/>
<text text-anchor="middle" x="314.12" y="-207.95" font-family="Helvetica,sans-Serif" font-size="14.00">b</text>
<polyline fill="none" stroke="black" points="326.25,-195 326.25,-231"/>
<text text-anchor="middle" x="338" y="-207.95" font-family="Helvetica,sans-Serif" font-size="14.00">c</text>
</g>
<!-- nodeR2 -->
<g id="node5" class="node">
<title>nodeR2</title>
<polygon fill="lightcoral" stroke="black" points="234.25,-109 234.25,-145 313.75,-145 313.75,-109 234.25,-109"/>
<text text-anchor="middle" x="248.62" y="-121.95" font-family="Helvetica,sans-Serif" font-size="14.00">r2</text>
<polyline fill="none" stroke="black" points="263,-109 263,-145"/>
<text text-anchor="middle" x="276.25" y="-121.95" font-family="Helvetica,sans-Serif" font-size="14.00">C</text>
<polyline fill="none" stroke="black" points="289.5,-109 289.5,-145"/>
<text text-anchor="middle" x="301.62" y="-121.95" font-family="Helvetica,sans-Serif" font-size="14.00">d</text>
</g>
<!-- nodeR1&#45;&gt;nodeR2 -->
<g id="edge3" class="edge">
<title>nodeR1&#45;&gt;nodeR2</title>
<path fill="none" stroke="black" d="M274,-183.24C274,-170.65 274,-156.3 274,-145.38"/>
<polygon fill="black" stroke="black" points="270.5,-183.08 274,-193.08 277.5,-183.08 270.5,-183.08"/>
</g>
</g>
</svg>
