<?xml version="1.0" encoding="UTF-8" standalone="no"?>
<!DOCTYPE svg PUBLIC "-//W3C//DTD SVG 1.1//EN"
 "http://www.w3.org/Graphics/SVG/1.1/DTD/svg11.dtd">
<!-- Generated by graphviz version 12.0.0 (20240704.0754)
 -->
<!-- Title: g Pages: 1 -->
<svg width="425pt" height="261pt"
 viewBox="0.00 0.00 425.00 260.50" xmlns="http://www.w3.org/2000/svg" xmlns:xlink="http://www.w3.org/1999/xlink">
<g id="graph0" class="graph" transform="scale(1 1) rotate(0) translate(4 256.5)">
<title>g</title>
<polygon fill="white" stroke="none" points="-4,4 -4,-256.5 421,-256.5 421,4 -4,4"/>
<g id="clust1" class="cluster">
<title>cluster_EntityHierarchy</title>
<polygon fill="none" stroke="black" points="8,-8 8,-244.5 254,-244.5 254,-8 8,-8"/>
<text text-anchor="middle" x="131" y="-227.2" font-family="Helvetica,sans-Serif" font-size="14.00">Entity hierarchy</text>
</g>
<g id="clust2" class="cluster">
<title>cluster_RplHierarchy</title>
<polygon fill="none" stroke="black" points="262,-29.5 262,-223 409,-223 409,-29.5 262,-29.5"/>
<text text-anchor="middle" x="335.5" y="-205.7" font-family="Helvetica,sans-Serif" font-size="14.00">Replication hierarchy</text>
</g>
<!-- entA -->
<g id="node1" class="node">
<title>entA</title>
<polygon fill="lightblue" stroke="none" points="60.5,-136 60.5,-208 77.5,-208 77.5,-136 60.5,-136"/>
<polygon fill="none" stroke="black" points="60.5,-136 60.5,-208 77.5,-208 77.5,-136 60.5,-136"/>
<text text-anchor="start" x="64.12" y="-166.95" font-family="Helvetica,sans-Serif" font-size="14.00">A</text>
<polygon fill="lightblue" stroke="none" points="77.5,-184 77.5,-208 201.5,-208 201.5,-184 77.5,-184"/>
<polygon fill="none" stroke="black" points="77.5,-184 77.5,-208 201.5,-208 201.5,-184 77.5,-184"/>
<text text-anchor="start" x="81.38" y="-190.7" font-family="Helvetica,sans-Serif" font-size="14.00">r1: RplComponent</text>
<polygon fill="lightblue" stroke="none" points="77.5,-160 77.5,-184 201.5,-184 201.5,-160 77.5,-160"/>
<polygon fill="none" stroke="black" points="77.5,-160 77.5,-184 201.5,-184 201.5,-160 77.5,-160"/>
<text text-anchor="start" x="81.5" y="-166.7" font-family="Helvetica,sans-Serif" font-size="14.00">a</text>
<polygon fill="none" stroke="black" points="77.5,-136 77.5,-160 201.5,-160 201.5,-136 77.5,-136"/>
<text text-anchor="start" x="81.5" y="-142.7" font-family="Helvetica,sans-Serif" font-size="14.00">b</text>
</g>
<!-- entB -->
<g id="node2" class="node">
<title>entB</title>
<polygon fill="#eedd82" stroke="none" points="24.5,-20 24.5,-92 41.5,-92 41.5,-20 24.5,-20"/>
<polygon fill="none" stroke="black" points="24.5,-20 24.5,-92 41.5,-92 41.5,-20 24.5,-20"/>
<text text-anchor="start" x="28.12" y="-50.95" font-family="Helvetica,sans-Serif" font-size="14.00">B</text>
<polygon fill="#eedd82" stroke="none" points="41.5,-68 41.5,-92 165.5,-92 165.5,-68 41.5,-68"/>
<polygon fill="none" stroke="black" points="41.5,-68 41.5,-92 165.5,-92 165.5,-68 41.5,-68"/>
<text text-anchor="start" x="45.38" y="-74.7" font-family="Helvetica,sans-Serif" font-size="14.00">r2: RplComponent</text>
<polygon fill="none" stroke="black" points="41.5,-44 41.5,-68 165.5,-68 165.5,-44 41.5,-44"/>
<text text-anchor="start" x="45.5" y="-50.7" font-family="Helvetica,sans-Serif" font-size="14.00">c</text>
<polygon fill="#eedd82" stroke="none" points="41.5,-20 41.5,-44 165.5,-44 165.5,-20 41.5,-20"/>
<polygon fill="none" stroke="black" points="41.5,-20 41.5,-44 165.5,-44 165.5,-20 41.5,-20"/>
<text text-anchor="start" x="45.5" y="-26.7" font-family="Helvetica,sans-Serif" font-size="14.00">d</text>
</g>
<!-- entA&#45;&gt;entB -->
<g id="edge1" class="edge">
<title>entA&#45;&gt;entB</title>
<path fill="none" stroke="black" d="M115.33,-121.39C112.62,-112.8 109.84,-103.98 107.23,-95.74"/>
<polygon fill="black" stroke="black" points="111.91,-122.16 118.26,-130.64 118.58,-120.05 111.91,-122.16"/>
</g>
<!-- entC -->
<g id="node3" class="node">
<title>entC</title>
<polygon fill="none" stroke="black" points="202,-32 202,-80 220,-80 220,-32 202,-32"/>
<text text-anchor="start" x="205.75" y="-50.95" font-family="Helvetica,sans-Serif" font-size="14.00">C</text>
<polygon fill="lightblue" stroke="none" points="220,-56 220,-80 236,-80 236,-56 220,-56"/>
<polygon fill="none" stroke="black" points="220,-56 220,-80 236,-80 236,-56 220,-56"/>
<text text-anchor="start" x="223.88" y="-62.7" font-family="Helvetica,sans-Serif" font-size="14.00">e</text>
<polygon fill="none" stroke="black" points="220,-32 220,-56 236,-56 236,-32 220,-32"/>
<text text-anchor="start" x="224" y="-38.7" font-family="Helvetica,sans-Serif" font-size="14.00">f</text>
</g>
<!-- entA&#45;&gt;entC -->
<g id="edge2" class="edge">
<title>entA&#45;&gt;entC</title>
<path fill="none" stroke="black" d="M168.07,-122.98C178.39,-109.61 189.23,-95.57 198.24,-83.89"/>
<polygon fill="black" stroke="black" points="165.3,-120.83 161.96,-130.89 170.84,-125.11 165.3,-120.83"/>
</g>
<!-- nodeR1 -->
<g id="node4" class="node">
<title>nodeR1</title>
<polygon fill="lightblue" stroke="black" points="283.88,-154 283.88,-190 386.12,-190 386.12,-154 283.88,-154"/>
<text text-anchor="middle" x="298.25" y="-166.95" font-family="Helvetica,sans-Serif" font-size="14.00">r1</text>
<polyline fill="none" stroke="black" points="312.62,-154 312.62,-190"/>
<text text-anchor="middle" x="325.5" y="-166.95" font-family="Helvetica,sans-Serif" font-size="14.00">A</text>
<polyline fill="none" stroke="black" points="338.38,-154 338.38,-190"/>
<text text-anchor="middle" x="350.12" y="-166.95" font-family="Helvetica,sans-Serif" font-size="14.00">a</text>
<polyline fill="none" stroke="black" points="361.88,-154 361.88,-190"/>
<text text-anchor="middle" x="374" y="-166.95" font-family="Helvetica,sans-Serif" font-size="14.00">e</text>
</g>
<!-- nodeR2 -->
<g id="node5" class="node">
<title>nodeR2</title>
<polygon fill="#eedd82" stroke="black" points="295.62,-38 295.62,-74 374.38,-74 374.38,-38 295.62,-38"/>
<text text-anchor="middle" x="310" y="-50.95" font-family="Helvetica,sans-Serif" font-size="14.00">r2</text>
<polyline fill="none" stroke="black" points="324.38,-38 324.38,-74"/>
<text text-anchor="middle" x="337.25" y="-50.95" font-family="Helvetica,sans-Serif" font-size="14.00">B</text>
<polyline fill="none" stroke="black" points="350.12,-38 350.12,-74"/>
<text text-anchor="middle" x="362.25" y="-50.95" font-family="Helvetica,sans-Serif" font-size="14.00">d</text>
</g>
<!-- nodeR1&#45;&gt;nodeR2 -->
<g id="edge3" class="edge">
<title>nodeR1&#45;&gt;nodeR2</title>
<path fill="none" stroke="black" d="M335,-142.37C335,-121.02 335,-92.54 335,-74.48"/>
<polygon fill="black" stroke="black" points="331.5,-142.17 335,-152.17 338.5,-142.17 331.5,-142.17"/>
</g>
</g>
</svg>
