<?xml version="1.0" encoding="UTF-8" standalone="no"?>
<!DOCTYPE svg PUBLIC "-//W3C//DTD SVG 1.1//EN"
 "http://www.w3.org/Graphics/SVG/1.1/DTD/svg11.dtd">
<!-- Generated by graphviz version 12.0.0 (20240704.0754)
 -->
<!-- Title: g Pages: 1 -->
<svg width="345pt" height="169pt"
 viewBox="0.00 0.00 345.00 168.50" xmlns="http://www.w3.org/2000/svg" xmlns:xlink="http://www.w3.org/1999/xlink">
<g id="graph0" class="graph" transform="scale(1 1) rotate(0) translate(4 164.5)">
<title>g</title>
<polygon fill="white" stroke="none" points="-4,4 -4,-164.5 341,-164.5 341,4 -4,4"/>
<g id="clust1" class="cluster">
<title>cluster_EntityHierarchy</title>
<polygon fill="none" stroke="black" points="8,-8 8,-152.5 174,-152.5 174,-8 8,-8"/>
<text text-anchor="middle" x="91" y="-135.2" font-family="Helvetica,sans-Serif" font-size="14.00">Entity hierarchy</text>
</g>
<g id="clust2" class="cluster">
<title>cluster_RplHierarchy</title>
<polygon fill="none" stroke="black" points="182,-41.5 182,-119 329,-119 329,-41.5 182,-41.5"/>
<text text-anchor="middle" x="255.5" y="-101.7" font-family="Helvetica,sans-Serif" font-size="14.00">Replication hierarchy</text>
</g>
<!-- entA -->
<g id="node1" class="node">
<title>entA</title>
<polygon fill="lightblue" stroke="none" points="24.5,-20 24.5,-116 41.5,-116 41.5,-20 24.5,-20"/>
<polygon fill="none" stroke="black" points="24.5,-20 24.5,-116 41.5,-116 41.5,-20 24.5,-20"/>
<text text-anchor="start" x="28.12" y="-62.95" font-family="Helvetica,sans-Serif" font-size="14.00">A</text>
<polygon fill="lightblue" stroke="none" points="41.5,-92 41.5,-116 157.5,-116 157.5,-92 41.5,-92"/>
<polygon fill="none" stroke="black" points="41.5,-92 41.5,-116 157.5,-116 157.5,-92 41.5,-92"/>
<text text-anchor="start" x="45.5" y="-98.7" font-family="Helvetica,sans-Serif" font-size="14.00">r: RplComponent</text>
<polygon fill="lightblue" stroke="none" points="41.5,-68 41.5,-92 157.5,-92 157.5,-68 41.5,-68"/>
<polygon fill="none" stroke="black" points="41.5,-68 41.5,-92 157.5,-92 157.5,-68 41.5,-68"/>
<text text-anchor="start" x="45.5" y="-74.7" font-family="Helvetica,sans-Serif" font-size="14.00">a</text>
<polygon fill="none" stroke="black" points="41.5,-44 41.5,-68 157.5,-68 157.5,-44 41.5,-44"/>
<text text-anchor="start" x="45.5" y="-50.7" font-family="Helvetica,sans-Serif" font-size="14.00">b</text>
<polygon fill="none" stroke="black" points="41.5,-20 41.5,-44 157.5,-44 157.5,-20 41.5,-20"/>
<text text-anchor="start" x="45.5" y="-26.7" font-family="Helvetica,sans-Serif" font-size="14.00">c</text>
</g>
<!-- nodeA -->
<g id="node2" class="node">
<title>nodeA</title>
<polygon fill="lightblue" stroke="black" points="220.12,-50 220.12,-86 289.88,-86 289.88,-50 220.12,-50"/>
<text text-anchor="middle" x="230.38" y="-62.95" font-family="Helvetica,sans-Serif" font-size="14.00">r</text>
<polyline fill="none" stroke="black" points="240.62,-50 240.62,-86"/>
<text text-anchor="middle" x="253.5" y="-62.95" font-family="Helvetica,sans-Serif" font-size="14.00">A</text>
<polyline fill="none" stroke="black" points="266.38,-50 266.38,-86"/>
<text text-anchor="middle" x="278.12" y="-62.95" font-family="Helvetica,sans-Serif" font-size="14.00">a</text>
</g>
</g>
</svg>
