<?xml version="1.0" encoding="UTF-8" standalone="no"?>
<!DOCTYPE svg PUBLIC "-//W3C//DTD SVG 1.1//EN"
 "http://www.w3.org/Graphics/SVG/1.1/DTD/svg11.dtd">
<!-- Generated by graphviz version 12.0.0 (20240704.0754)
 -->
<!-- Title: g Pages: 1 -->
<svg width="374pt" height="237pt"
 viewBox="0.00 0.00 374.00 236.50" xmlns="http://www.w3.org/2000/svg" xmlns:xlink="http://www.w3.org/1999/xlink">
<g id="graph0" class="graph" transform="scale(1 1) rotate(0) translate(4 232.5)">
<title>g</title>
<polygon fill="white" stroke="none" points="-4,4 -4,-232.5 370,-232.5 370,4 -4,4"/>
<g id="clust1" class="cluster">
<title>cluster_EntityHierarchy</title>
<polygon fill="none" stroke="black" points="8,-8 8,-220.5 182,-220.5 182,-8 8,-8"/>
<text text-anchor="middle" x="95" y="-203.2" font-family="Helvetica,sans-Serif" font-size="14.00">Entity hierarchy</text>
</g>
<g id="clust2" class="cluster">
<title>cluster_RplHierarchy</title>
<polygon fill="none" stroke="black" points="190,-121.5 190,-199 358,-199 358,-121.5 190,-121.5"/>
<text text-anchor="middle" x="274" y="-181.7" font-family="Helvetica,sans-Serif" font-size="14.00">Replication hierarchy</text>
</g>
<!-- entA -->
<g id="node1" class="node">
<title>entA</title>
<polygon fill="lightblue" stroke="none" points="24.5,-112 24.5,-184 41.5,-184 41.5,-112 24.5,-112"/>
<polygon fill="none" stroke="black" points="24.5,-112 24.5,-184 41.5,-184 41.5,-112 24.5,-112"/>
<text text-anchor="start" x="28.12" y="-142.95" font-family="Helvetica,sans-Serif" font-size="14.00">A</text>
<polygon fill="lightblue" stroke="none" points="41.5,-160 41.5,-184 165.5,-184 165.5,-160 41.5,-160"/>
<polygon fill="none" stroke="black" points="41.5,-160 41.5,-184 165.5,-184 165.5,-160 41.5,-160"/>
<text text-anchor="start" x="45.38" y="-166.7" font-family="Helvetica,sans-Serif" font-size="14.00">r1: RplComponent</text>
<polygon fill="lightblue" stroke="none" points="41.5,-136 41.5,-160 165.5,-160 165.5,-136 41.5,-136"/>
<polygon fill="none" stroke="black" points="41.5,-136 41.5,-160 165.5,-160 165.5,-136 41.5,-136"/>
<text text-anchor="start" x="45.5" y="-142.7" font-family="Helvetica,sans-Serif" font-size="14.00">a</text>
<polygon fill="none" stroke="black" points="41.5,-112 41.5,-136 165.5,-136 165.5,-112 41.5,-112"/>
<text text-anchor="start" x="45.5" y="-118.7" font-family="Helvetica,sans-Serif" font-size="14.00">b</text>
</g>
<!-- entB -->
<g id="node2" class="node">
<title>entB</title>
<polygon fill="lightblue" stroke="none" points="42.5,-20 42.5,-68 59.5,-68 59.5,-20 42.5,-20"/>
<polygon fill="none" stroke="black" points="42.5,-20 42.5,-68 59.5,-68 59.5,-20 42.5,-20"/>
<text text-anchor="start" x="46.12" y="-38.95" font-family="Helvetica,sans-Serif" font-size="14.00">B</text>
<polygon fill="none" stroke="black" points="59.5,-44 59.5,-68 75.5,-68 75.5,-44 59.5,-44"/>
<text text-anchor="start" x="63.5" y="-50.7" font-family="Helvetica,sans-Serif" font-size="14.00">c</text>
<polygon fill="lightblue" stroke="none" points="59.5,-20 59.5,-44 75.5,-44 75.5,-20 59.5,-20"/>
<polygon fill="none" stroke="black" points="59.5,-20 59.5,-44 75.5,-44 75.5,-20 59.5,-20"/>
<text text-anchor="start" x="63.38" y="-26.7" font-family="Helvetica,sans-Serif" font-size="14.00">d</text>
</g>
<!-- entA&#45;&gt;entB -->
<g id="edge1" class="edge">
<title>entA&#45;&gt;entB</title>
<path fill="none" stroke="black" d="M77.5,-97.43C74.37,-88.56 71.22,-79.63 68.43,-71.72"/>
<polygon fill="black" stroke="black" points="74.15,-98.45 80.78,-106.72 80.76,-96.13 74.15,-98.45"/>
</g>
<!-- entC -->
<g id="node3" class="node">
<title>entC</title>
<polygon fill="none" stroke="black" points="114,-20 114,-68 132,-68 132,-20 114,-20"/>
<text text-anchor="start" x="117.75" y="-38.95" font-family="Helvetica,sans-Serif" font-size="14.00">C</text>
<polygon fill="lightblue" stroke="none" points="132,-44 132,-68 148,-68 148,-44 132,-44"/>
<polygon fill="none" stroke="black" points="132,-44 132,-68 148,-68 148,-44 132,-44"/>
<text text-anchor="start" x="135.88" y="-50.7" font-family="Helvetica,sans-Serif" font-size="14.00">e</text>
<polygon fill="none" stroke="black" points="132,-20 132,-44 148,-44 148,-20 132,-20"/>
<text text-anchor="start" x="136" y="-26.7" font-family="Helvetica,sans-Serif" font-size="14.00">f</text>
</g>
<!-- entA&#45;&gt;entC -->
<g id="edge2" class="edge">
<title>entA&#45;&gt;entC</title>
<path fill="none" stroke="black" d="M112.5,-97.43C115.63,-88.56 118.78,-79.63 121.57,-71.72"/>
<polygon fill="black" stroke="black" points="109.24,-96.13 109.22,-106.72 115.85,-98.45 109.24,-96.13"/>
</g>
<!-- nodeA -->
<g id="node4" class="node">
<title>nodeA</title>
<polygon fill="lightblue" stroke="black" points="197.88,-130 197.88,-166 350.12,-166 350.12,-130 197.88,-130"/>
<text text-anchor="middle" x="212.25" y="-142.95" font-family="Helvetica,sans-Serif" font-size="14.00">r1</text>
<polyline fill="none" stroke="black" points="226.62,-130 226.62,-166"/>
<text text-anchor="middle" x="239.5" y="-142.95" font-family="Helvetica,sans-Serif" font-size="14.00">A</text>
<polyline fill="none" stroke="black" points="252.38,-130 252.38,-166"/>
<text text-anchor="middle" x="264.12" y="-142.95" font-family="Helvetica,sans-Serif" font-size="14.00">a</text>
<polyline fill="none" stroke="black" points="275.88,-130 275.88,-166"/>
<text text-anchor="middle" x="288.75" y="-142.95" font-family="Helvetica,sans-Serif" font-size="14.00">B</text>
<polyline fill="none" stroke="black" points="301.62,-130 301.62,-166"/>
<text text-anchor="middle" x="313.75" y="-142.95" font-family="Helvetica,sans-Serif" font-size="14.00">d</text>
<polyline fill="none" stroke="black" points="325.88,-130 325.88,-166"/>
<text text-anchor="middle" x="338" y="-142.95" font-family="Helvetica,sans-Serif" font-size="14.00">e</text>
</g>
</g>
</svg>
