<?xml version="1.0" encoding="UTF-8" standalone="no"?>
<!DOCTYPE svg PUBLIC "-//W3C//DTD SVG 1.1//EN"
 "http://www.w3.org/Graphics/SVG/1.1/DTD/svg11.dtd">
<!-- Generated by graphviz version 12.0.0 (20240704.0754)
 -->
<!-- Title: Editor_Entities Pages: 1 -->
<svg width="684pt" height="396pt"
 viewBox="0.00 0.00 683.50 396.00" xmlns="http://www.w3.org/2000/svg" xmlns:xlink="http://www.w3.org/1999/xlink">
<g id="graph0" class="graph" transform="scale(1 1) rotate(0) translate(4 392)">
<title>Editor_Entities</title>
<polygon fill="white" stroke="none" points="-4,4 -4,-392 679.5,-392 679.5,4 -4,4"/>
<g id="clust1" class="cluster">
<title>cluster_Manager</title>
<g id="a_clust1"><a xlink:href="interfaceSCR__EditorManagerEntity.html" target="_top" xlink:title="SCR_EditorManagerEntity">
<polygon fill="#87ceff" stroke="#87ceff" points="247.25,-108 247.25,-290 421.5,-290 421.5,-108 247.25,-108"/>
<text text-anchor="middle" x="334.38" y="-274.6" font-family="sans-serif bold" font-size="12.00">SCR_EditorManagerEntity</text>
</a>
</g>
</g>
<g id="clust2" class="cluster">
<title>cluster_Mode_n</title>
<g id="a_clust2"><a xlink:href="interfaceSCR__EditorModeEntity.html" target="_top" xlink:title="SCR_EditorModeEntity n">
<polygon fill="#87ceff" stroke="#87ceff" points="506.75,-198 506.75,-380 672,-380 672,-198 506.75,-198"/>
<text text-anchor="middle" x="589.38" y="-364.6" font-family="sans-serif bold" font-size="12.00">SCR_EditorModeEntity n</text>
</a>
</g>
</g>
<g id="clust3" class="cluster">
<title>cluster_Mode_1</title>
<g id="a_clust3"><a xlink:href="interfaceSCR__EditorModeEntity.html" target="_top" xlink:title="SCR_EditorModeEntity 1">
<polygon fill="#87ceff" stroke="#87ceff" points="506.75,-8 506.75,-190 672,-190 672,-8 506.75,-8"/>
<text text-anchor="middle" x="589.38" y="-174.6" font-family="sans-serif bold" font-size="12.00">SCR_EditorModeEntity 1</text>
</a>
</g>
</g>
<!-- Manager_Component_1 -->
<g id="node1" class="node">
<title>Manager_Component_1</title>
<g id="a_node1"><a xlink:href="interfaceSCR__BaseEditorComponent.html" target="_top" xlink:title="SCR_BaseEditorComponent 1">
<polygon fill="#fff68f" stroke="#fff68f" points="404.5,-152 263.25,-152 263.25,-116 404.5,-116 404.5,-152"/>
<text text-anchor="middle" x="333.88" y="-130.5" font-family="sans-serif" font-size="10.00">SCR_BaseEditorComponent 1</text>
</a>
</g>
</g>
<!-- Manager_Component_2 -->
<g id="node2" class="node">
<title>Manager_Component_2</title>
<g id="a_node2"><a xlink:href="interfaceSCR__BaseEditorComponent.html" target="_top" xlink:title="SCR_BaseEditorComponent 2">
<polygon fill="#fff68f" stroke="#fff68f" points="404.5,-206 263.25,-206 263.25,-170 404.5,-170 404.5,-206"/>
<text text-anchor="middle" x="333.88" y="-184.5" font-family="sans-serif" font-size="10.00">SCR_BaseEditorComponent 2</text>
</a>
</g>
</g>
<!-- Mode_n_Component_1 -->
<g id="node4" class="node">
<title>Mode_n_Component_1</title>
<g id="a_node4"><a xlink:href="interfaceSCR__BaseEditorComponent.html" target="_top" xlink:title="SCR_BaseEditorComponent 1">
<polygon fill="#fff68f" stroke="#fff68f" points="659.5,-242 518.25,-242 518.25,-206 659.5,-206 659.5,-242"/>
<text text-anchor="middle" x="588.88" y="-220.5" font-family="sans-serif" font-size="10.00">SCR_BaseEditorComponent 1</text>
</a>
</g>
</g>
<!-- Manager_Component_2&#45;&gt;Mode_n_Component_1 -->
<g id="edge3" class="edge">
<title>Manager_Component_2&#45;&gt;Mode_n_Component_1</title>
<path fill="none" stroke="#87ceff" d="M421.5,-215C451.47,-215 481.3,-215 496.67,-215"/>
<polygon fill="#87ceff" stroke="#87ceff" points="506.25,-211 506.25,-219 498.25,-219 498.25,-211 506.25,-211"/>
<polyline fill="none" stroke="#87ceff" points="498.25,-215 496.25,-215"/>
<text text-anchor="middle" x="464.12" y="-226.45" font-family="sans-serif" font-size="9.00" fill="#4a708b">m_ModePrefabs</text>
<text text-anchor="middle" x="464.12" y="-215.95" font-family="sans-serif" font-size="9.00" fill="#4a708b">Attribute</text>
</g>
<!-- Mode_1_Component_n -->
<g id="node9" class="node">
<title>Mode_1_Component_n</title>
<g id="a_node9"><a xlink:href="interfaceSCR__BaseEditorComponent.html" target="_top" xlink:title="SCR_BaseEditorComponent n">
<polygon fill="#fff68f" stroke="#fff68f" points="659.5,-160 518.25,-160 518.25,-124 659.5,-124 659.5,-160"/>
<text text-anchor="middle" x="588.88" y="-138.5" font-family="sans-serif" font-size="10.00">SCR_BaseEditorComponent n</text>
</a>
</g>
</g>
<!-- Manager_Component_2&#45;&gt;Mode_1_Component_n -->
<g id="edge2" class="edge">
<title>Manager_Component_2&#45;&gt;Mode_1_Component_n</title>
<path fill="none" stroke="#87ceff" d="M421.5,-156C451.47,-156 481.3,-156 496.67,-156"/>
<polygon fill="#87ceff" stroke="#87ceff" points="506.25,-152 506.25,-160 498.25,-160 498.25,-152 506.25,-152"/>
<polyline fill="none" stroke="#87ceff" points="498.25,-156 496.25,-156"/>
<text text-anchor="middle" x="464.12" y="-173.45" font-family="sans-serif" font-size="9.00" fill="#4a708b">m_ModePrefabs</text>
<text text-anchor="middle" x="464.12" y="-162.95" font-family="sans-serif" font-size="9.00" fill="#4a708b">Attribute</text>
</g>
<!-- Manager_Component_n -->
<g id="node3" class="node">
<title>Manager_Component_n</title>
<g id="a_node3"><a xlink:href="interfaceSCR__BaseEditorComponent.html" target="_top" xlink:title="SCR_BaseEditorComponent n">
<polygon fill="#fff68f" stroke="#fff68f" points="404.5,-260 263.25,-260 263.25,-224 404.5,-224 404.5,-260"/>
<text text-anchor="middle" x="333.88" y="-238.5" font-family="sans-serif" font-size="10.00">SCR_BaseEditorComponent n</text>
</a>
</g>
</g>
<!-- Mode_n_Component_2 -->
<g id="node5" class="node">
<title>Mode_n_Component_2</title>
<g id="a_node5"><a xlink:href="interfaceSCR__BaseEditorComponent.html" target="_top" xlink:title="SCR_BaseEditorComponent 2">
<polygon fill="#fff68f" stroke="#fff68f" points="659.5,-296 518.25,-296 518.25,-260 659.5,-260 659.5,-296"/>
<text text-anchor="middle" x="588.88" y="-274.5" font-family="sans-serif" font-size="10.00">SCR_BaseEditorComponent 2</text>
</a>
</g>
</g>
<!-- Mode_n_Component_n -->
<g id="node6" class="node">
<title>Mode_n_Component_n</title>
<g id="a_node6"><a xlink:href="interfaceSCR__BaseEditorComponent.html" target="_top" xlink:title="SCR_BaseEditorComponent n">
<polygon fill="#fff68f" stroke="#fff68f" points="659.5,-350 518.25,-350 518.25,-314 659.5,-314 659.5,-350"/>
<text text-anchor="middle" x="588.88" y="-328.5" font-family="sans-serif" font-size="10.00">SCR_BaseEditorComponent n</text>
</a>
</g>
</g>
<!-- Mode_1_Component_1 -->
<g id="node7" class="node">
<title>Mode_1_Component_1</title>
<g id="a_node7"><a xlink:href="interfaceSCR__BaseEditorComponent.html" target="_top" xlink:title="SCR_BaseEditorComponent 1">
<polygon fill="#fff68f" stroke="#fff68f" points="659.5,-52 518.25,-52 518.25,-16 659.5,-16 659.5,-52"/>
<text text-anchor="middle" x="588.88" y="-30.5" font-family="sans-serif" font-size="10.00">SCR_BaseEditorComponent 1</text>
</a>
</g>
</g>
<!-- Mode_1_Component_2 -->
<g id="node8" class="node">
<title>Mode_1_Component_2</title>
<g id="a_node8"><a xlink:href="interfaceSCR__BaseEditorComponent.html" target="_top" xlink:title="SCR_BaseEditorComponent 2">
<polygon fill="#fff68f" stroke="#fff68f" points="659.5,-106 518.25,-106 518.25,-70 659.5,-70 659.5,-106"/>
<text text-anchor="middle" x="588.88" y="-84.5" font-family="sans-serif" font-size="10.00">SCR_BaseEditorComponent 2</text>
</a>
</g>
</g>
<!-- Core -->
<g id="node10" class="node">
<title>Core</title>
<g id="a_node10"><a xlink:href="interfaceSCR__EditorManagerCore.html" target="_top" xlink:title="SCR_EditorManagerCore\nConfig">
<polygon fill="#d9d9d9" stroke="#d9d9d9" points="121.75,-206 0,-206 0,-170 121.75,-170 121.75,-206"/>
<text text-anchor="middle" x="60.88" y="-190.5" font-family="sans-serif" font-size="10.00">SCR_EditorManagerCore</text>
<text text-anchor="middle" x="60.88" y="-178.5" font-family="sans-serif" font-size="10.00">Config</text>
</a>
</g>
</g>
<!-- Core&#45;&gt;Manager_Component_2 -->
<g id="edge1" class="edge">
<title>Core&#45;&gt;Manager_Component_2</title>
<path fill="none" stroke="#87ceff" d="M122.14,-188C122.14,-188 202.52,-188 237.13,-188"/>
<polygon fill="#87ceff" stroke="#87ceff" points="246.75,-184 246.75,-192 238.75,-192 238.75,-184 246.75,-184"/>
<polyline fill="none" stroke="#87ceff" points="238.75,-188 236.75,-188"/>
<text text-anchor="middle" x="188.5" y="-200.45" font-family="sans-serif" font-size="9.00" fill="#4a708b">m_EditorManagerPrefab</text>
<text text-anchor="middle" x="188.5" y="-189.95" font-family="sans-serif" font-size="9.00" fill="#4a708b">Attribute</text>
</g>
</g>
</svg>
