<?xml version="1.0" encoding="UTF-8" standalone="no"?>
<!DOCTYPE svg PUBLIC "-//W3C//DTD SVG 1.1//EN"
 "http://www.w3.org/Graphics/SVG/1.1/DTD/svg11.dtd">
<!-- Generated by graphviz version 12.0.0 (20240704.0754)
 -->
<!-- Title: SCR_BaseEditorComponent_Order Pages: 1 -->
<svg width="272pt" height="796pt"
 viewBox="0.00 0.00 271.75 796.25" xmlns="http://www.w3.org/2000/svg" xmlns:xlink="http://www.w3.org/1999/xlink">
<g id="graph0" class="graph" transform="scale(1 1) rotate(0) translate(4 792.25)">
<title>SCR_BaseEditorComponent_Order</title>
<polygon fill="white" stroke="none" points="-4,4 -4,-792.25 267.75,-792.25 267.75,4 -4,4"/>
<g id="clust1" class="cluster">
<title>cluster_Opened</title>
<polygon fill="#f2f2f2" stroke="#f2f2f2" points="8,-130 8,-683.25 240,-683.25 240,-130 8,-130"/>
<text text-anchor="middle" x="124" y="-664.05" font-family="sans-serif" font-size="16.00" fill="#7f7f7f">Editor Open</text>
</g>
<g id="clust2" class="cluster">
<title>cluster_Mode</title>
<polygon fill="#d9d9d9" stroke="#d9d9d9" points="32,-186 32,-527.5 214,-527.5 214,-186 32,-186"/>
<text text-anchor="middle" x="123" y="-508.3" font-family="sans-serif" font-size="16.00" fill="#7f7f7f">Editor Mode Active</text>
</g>
<g id="clust3" class="cluster">
<title>cluster_Frame</title>
<polygon fill="#bfbfbf" stroke="#bfbfbf" points="56,-242 56,-392.75 190,-392.75 190,-242 56,-242"/>
<text text-anchor="middle" x="123" y="-373.55" font-family="sans-serif" font-size="16.00" fill="#7f7f7f">Each Frame</text>
</g>
<!-- EOnEditorInit -->
<g id="node1" class="node">
<title>EOnEditorInit</title>
<g id="a_node1"><a xlink:href="interfaceSCR__BaseEditorComponent.html#aaf0b194c8320c8c6fa71aa27ed832bec" target="_top" xlink:title="{ EOnEditorInit | EOnEditorInitServer }">
<polygon fill="white" stroke="black" points="111,-747.75 111,-787.75 211,-787.75 211,-747.75 111,-747.75"/>
<text text-anchor="middle" x="161" y="-774.25" font-family="sans-serif" font-size="10.00">EOnEditorInit</text>
<polyline fill="none" stroke="black" points="111,-767.75 211,-767.75"/>
<text text-anchor="middle" x="161" y="-754.25" font-family="sans-serif" font-size="10.00">EOnEditorInitServer</text>
</a>
</g>
</g>
<!-- EOnEditorRequest1 -->
<g id="node2" class="node">
<title>EOnEditorRequest1</title>
<g id="a_node2"><a xlink:href="interfaceSCR__BaseEditorComponent.html#a15e6f5bfa51517ebdbcda40a58c4bbbc" target="_top" xlink:title="EOnEditorRequest1">
<polygon fill="white" stroke="black" points="209.88,-711.25 112.12,-711.25 112.12,-691.25 209.88,-691.25 209.88,-711.25"/>
<text text-anchor="middle" x="161" y="-697.75" font-family="sans-serif" font-size="10.00">EOnEditorRequest1</text>
</a>
</g>
</g>
<!-- EOnEditorInit&#45;&gt;EOnEditorRequest1 -->
<g id="edge1" class="edge">
<title>EOnEditorInit&#45;&gt;EOnEditorRequest1</title>
<path fill="none" stroke="black" d="M161,-747.44C161,-747.44 161,-722.94 161,-722.94"/>
<polygon fill="black" stroke="black" points="164.5,-722.94 161,-712.94 157.5,-722.94 164.5,-722.94"/>
</g>
<!-- EOnEditorOpen -->
<g id="node5" class="node">
<title>EOnEditorOpen</title>
<g id="a_node5"><a xlink:href="interfaceSCR__BaseEditorComponent.html#a2eb724a9bd2937c6df3aa2c4626affc0" target="_top" xlink:title="{ EOnEditorOpen | EOnEditorOpenServer }">
<polygon fill="white" stroke="black" points="106.5,-592 106.5,-632 215.5,-632 215.5,-592 106.5,-592"/>
<text text-anchor="middle" x="161" y="-618.5" font-family="sans-serif" font-size="10.00">EOnEditorOpen</text>
<polyline fill="none" stroke="black" points="106.5,-612 215.5,-612"/>
<text text-anchor="middle" x="161" y="-598.5" font-family="sans-serif" font-size="10.00">EOnEditorOpenServer</text>
</a>
</g>
</g>
<!-- EOnEditorRequest1&#45;&gt;EOnEditorOpen -->
<g id="edge2" class="edge">
<title>EOnEditorRequest1&#45;&gt;EOnEditorOpen</title>
<path fill="none" stroke="black" d="M161,-691.01C161,-691.01 161,-643.72 161,-643.72"/>
<polygon fill="black" stroke="black" points="164.5,-643.72 161,-633.72 157.5,-643.72 164.5,-643.72"/>
</g>
<!-- EOnEditorClose -->
<g id="node3" class="node">
<title>EOnEditorClose</title>
<g id="a_node3"><a xlink:href="interfaceSCR__BaseEditorComponent.html#ab097e29dd37f015bc804652a20300126" target="_top" xlink:title="{ EOnEditorClose | EOnEditorCloseServer }">
<polygon fill="white" stroke="black" points="152.12,-77.5 152.12,-117.5 261.88,-117.5 261.88,-77.5 152.12,-77.5"/>
<text text-anchor="middle" x="207" y="-104" font-family="sans-serif" font-size="10.00">EOnEditorClose</text>
<polyline fill="none" stroke="black" points="152.12,-97.5 261.88,-97.5"/>
<text text-anchor="middle" x="207" y="-84" font-family="sans-serif" font-size="10.00">EOnEditorCloseServer</text>
</a>
</g>
</g>
<!-- EOnEditorDelete -->
<g id="node4" class="node">
<title>EOnEditorDelete</title>
<g id="a_node4"><a xlink:href="interfaceSCR__BaseEditorComponent.html#af06e80b2269a3024842a90b421914f19" target="_top" xlink:title="{ EOnEditorDelete | EOnEditorDeleteServer }">
<polygon fill="white" stroke="black" points="150.25,-0.5 150.25,-40.5 263.75,-40.5 263.75,-0.5 150.25,-0.5"/>
<text text-anchor="middle" x="207" y="-27" font-family="sans-serif" font-size="10.00">EOnEditorDelete</text>
<polyline fill="none" stroke="black" points="150.25,-20.5 263.75,-20.5"/>
<text text-anchor="middle" x="207" y="-7" font-family="sans-serif" font-size="10.00">EOnEditorDeleteServer</text>
</a>
</g>
</g>
<!-- EOnEditorClose&#45;&gt;EOnEditorDelete -->
<g id="edge11" class="edge">
<title>EOnEditorClose&#45;&gt;EOnEditorDelete</title>
<path fill="none" stroke="black" d="M207,-77.27C207,-77.27 207,-52.38 207,-52.38"/>
<polygon fill="black" stroke="black" points="210.5,-52.38 207,-42.38 203.5,-52.38 210.5,-52.38"/>
</g>
<!-- EOnEditorClose&#45;&gt;EOnEditorOpen -->
<g id="edge14" class="edge">
<title>EOnEditorClose&#45;&gt;EOnEditorOpen</title>
<path fill="none" stroke="black" d="M238.69,-117.99C238.69,-213.68 238.69,-612 238.69,-612 238.69,-612 227.31,-612 227.31,-612"/>
<polygon fill="black" stroke="black" points="227.31,-608.5 217.31,-612 227.31,-615.5 227.31,-608.5"/>
</g>
<!-- EOnEditorPreActivate -->
<g id="node6" class="node">
<title>EOnEditorPreActivate</title>
<g id="a_node6"><a xlink:href="interfaceSCR__BaseEditorComponent.html#a99219b349aec7e8c41931c4465f5fbce" target="_top" xlink:title="EOnEditorPreActivate">
<polygon fill="white" stroke="black" points="214,-555.5 108,-555.5 108,-535.5 214,-535.5 214,-555.5"/>
<text text-anchor="middle" x="161" y="-542" font-family="sans-serif" font-size="10.00">EOnEditorPreActivate</text>
</a>
</g>
</g>
<!-- EOnEditorOpen&#45;&gt;EOnEditorPreActivate -->
<g id="edge3" class="edge">
<title>EOnEditorOpen&#45;&gt;EOnEditorPreActivate</title>
<path fill="none" stroke="black" d="M161,-591.69C161,-591.69 161,-567.19 161,-567.19"/>
<polygon fill="black" stroke="black" points="164.5,-567.19 161,-557.19 157.5,-567.19 164.5,-567.19"/>
</g>
<!-- EOnEditorActivate -->
<g id="node7" class="node">
<title>EOnEditorActivate</title>
<g id="a_node7"><a xlink:href="interfaceSCR__BaseEditorComponent.html#a4ca2d8485298ce3b8a90b6f677f31835" target="_top" xlink:title="EOnEditorActivate">
<polygon fill="white" stroke="black" points="185.88,-476.75 94.12,-476.75 94.12,-456.75 185.88,-456.75 185.88,-476.75"/>
<text text-anchor="middle" x="140" y="-463.25" font-family="sans-serif" font-size="10.00">EOnEditorActivate</text>
</a>
</g>
</g>
<!-- EOnEditorPreActivate&#45;&gt;EOnEditorActivate -->
<g id="edge4" class="edge">
<title>EOnEditorPreActivate&#45;&gt;EOnEditorActivate</title>
<path fill="none" stroke="black" d="M146.94,-535.2C146.94,-535.2 146.94,-488.56 146.94,-488.56"/>
<polygon fill="black" stroke="black" points="150.44,-488.56 146.94,-478.56 143.44,-488.56 150.44,-488.56"/>
</g>
<!-- EOnEditorPostActivate -->
<g id="node8" class="node">
<title>EOnEditorPostActivate</title>
<g id="a_node8"><a xlink:href="interfaceSCR__BaseEditorComponent.html#a56317515b2b51c2f6c9493d3535ee0c0" target="_top" xlink:title="EOnEditorPostActivate">
<polygon fill="white" stroke="black" points="183.88,-420.75 74.12,-420.75 74.12,-400.75 183.88,-400.75 183.88,-420.75"/>
<text text-anchor="middle" x="129" y="-407.25" font-family="sans-serif" font-size="10.00">EOnEditorPostActivate</text>
</a>
</g>
</g>
<!-- EOnEditorActivate&#45;&gt;EOnEditorPostActivate -->
<g id="edge5" class="edge">
<title>EOnEditorActivate&#45;&gt;EOnEditorPostActivate</title>
<path fill="none" stroke="black" d="M139,-456.48C139,-456.48 139,-432.47 139,-432.47"/>
<polygon fill="black" stroke="black" points="142.5,-432.47 139,-422.47 135.5,-432.47 142.5,-432.47"/>
</g>
<!-- EOnFrame -->
<g id="node10" class="node">
<title>EOnFrame</title>
<g id="a_node10"><a xlink:href="" target="_top" xlink:title="EOnFrame">
<polygon fill="white" stroke="black" points="153.5,-342 92.5,-342 92.5,-322 153.5,-322 153.5,-342"/>
<text text-anchor="middle" x="123" y="-328.5" font-family="sans-serif" font-size="10.00">EOnFrame</text>
</a>
</g>
</g>
<!-- EOnEditorPostActivate&#45;&gt;EOnFrame -->
<g id="edge6" class="edge">
<title>EOnEditorPostActivate&#45;&gt;EOnFrame</title>
<path fill="none" stroke="black" d="M123,-400.45C123,-400.45 123,-353.81 123,-353.81"/>
<polygon fill="black" stroke="black" points="126.5,-353.81 123,-343.81 119.5,-353.81 126.5,-353.81"/>
</g>
<!-- EOnEditorDeactivate -->
<g id="node9" class="node">
<title>EOnEditorDeactivate</title>
<g id="a_node9"><a xlink:href="interfaceSCR__BaseEditorComponent.html#a760fd3c6993a61f487bbf41e13280e79" target="_top" xlink:title="EOnEditorDeactivate">
<polygon fill="white" stroke="black" points="190.12,-230 87.88,-230 87.88,-210 190.12,-210 190.12,-230"/>
<text text-anchor="middle" x="139" y="-216.5" font-family="sans-serif" font-size="10.00">EOnEditorDeactivate</text>
</a>
</g>
</g>
<!-- EOnEditorDeactivate&#45;&gt;EOnEditorPreActivate -->
<g id="edge13" class="edge">
<title>EOnEditorDeactivate&#45;&gt;EOnEditorPreActivate</title>
<path fill="none" stroke="black" d="M190.33,-220C193.83,-220 196,-220 196,-220 196,-220 196,-523.53 196,-523.53"/>
<polygon fill="black" stroke="black" points="192.5,-523.53 196,-533.53 199.5,-523.53 192.5,-523.53"/>
</g>
<!-- EOnEditorRequest2 -->
<g id="node12" class="node">
<title>EOnEditorRequest2</title>
<g id="a_node12"><a xlink:href="interfaceSCR__BaseEditorComponent.html#a15e6f5bfa51517ebdbcda40a58c4bbbc" target="_top" xlink:title="EOnEditorRequest2">
<polygon fill="white" stroke="black" points="201.88,-174 104.12,-174 104.12,-154 201.88,-154 201.88,-174"/>
<text text-anchor="middle" x="153" y="-160.5" font-family="sans-serif" font-size="10.00">EOnEditorRequest2</text>
</a>
</g>
</g>
<!-- EOnEditorDeactivate&#45;&gt;EOnEditorRequest2 -->
<g id="edge9" class="edge">
<title>EOnEditorDeactivate&#45;&gt;EOnEditorRequest2</title>
<path fill="none" stroke="black" d="M147.12,-209.73C147.12,-209.73 147.12,-185.72 147.12,-185.72"/>
<polygon fill="black" stroke="black" points="150.63,-185.72 147.13,-175.72 143.63,-185.72 150.63,-185.72"/>
</g>
<!-- EOnEditorDebug -->
<g id="node11" class="node">
<title>EOnEditorDebug</title>
<g id="a_node11"><a xlink:href="interfaceSCR__BaseEditorComponent.html#a6f9df54e39cf75cf90a930c45829f9d7" target="_top" xlink:title="EOnEditorDebug">
<polygon fill="white" stroke="black" stroke-dasharray="5,2" points="165.5,-286 80.5,-286 80.5,-266 165.5,-266 165.5,-286"/>
<text text-anchor="middle" x="123" y="-272.5" font-family="sans-serif" font-size="10.00">EOnEditorDebug</text>
</a>
</g>
</g>
<!-- EOnFrame&#45;&gt;EOnEditorDebug -->
<g id="edge7" class="edge">
<title>EOnFrame&#45;&gt;EOnEditorDebug</title>
<path fill="none" stroke="black" d="M133.17,-321.73C133.17,-321.73 133.17,-297.72 133.17,-297.72"/>
<polygon fill="black" stroke="black" points="136.67,-297.72 133.17,-287.72 129.67,-297.72 136.67,-297.72"/>
</g>
<!-- EOnEditorDebug&#45;&gt;EOnEditorDeactivate -->
<g id="edge8" class="edge">
<title>EOnEditorDebug&#45;&gt;EOnEditorDeactivate</title>
<path fill="none" stroke="black" d="M126.69,-265.73C126.69,-265.73 126.69,-241.72 126.69,-241.72"/>
<polygon fill="black" stroke="black" points="130.19,-241.72 126.69,-231.72 123.19,-241.72 130.19,-241.72"/>
</g>
<!-- EOnEditorDebug&#45;&gt;EOnFrame -->
<g id="edge12" class="edge">
<title>EOnEditorDebug&#45;&gt;EOnFrame</title>
<path fill="none" stroke="black" d="M112.83,-286.27C112.83,-286.27 112.83,-310.28 112.83,-310.28"/>
<polygon fill="black" stroke="black" points="109.33,-310.28 112.83,-320.28 116.33,-310.28 109.33,-310.28"/>
</g>
<!-- EOnEditorRequest2&#45;&gt;EOnEditorClose -->
<g id="edge10" class="edge">
<title>EOnEditorRequest2&#45;&gt;EOnEditorClose</title>
<path fill="none" stroke="black" d="M177,-153.61C177,-153.61 177,-129.51 177,-129.51"/>
<polygon fill="black" stroke="black" points="180.5,-129.51 177,-119.51 173.5,-129.51 180.5,-129.51"/>
</g>
</g>
</svg>
