<?xml version="1.0" encoding="UTF-8" standalone="no"?>
<!DOCTYPE svg PUBLIC "-//W3C//DTD SVG 1.1//EN"
 "http://www.w3.org/Graphics/SVG/1.1/DTD/svg11.dtd">
<!-- Generated by graphviz version 12.0.0 (20240704.0754)
 -->
<!-- Title: g Pages: 1 -->
<svg width="261pt" height="175pt"
 viewBox="0.00 0.00 261.00 174.50" xmlns="http://www.w3.org/2000/svg" xmlns:xlink="http://www.w3.org/1999/xlink">
<g id="graph0" class="graph" transform="scale(1 1) rotate(0) translate(4 170.5)">
<title>g</title>
<polygon fill="white" stroke="none" points="-4,4 -4,-170.5 257,-170.5 257,4 -4,4"/>
<g id="clust1" class="cluster">
<title>cluster_RplHierarchy</title>
<polygon fill="none" stroke="black" points="8,-8 8,-158.5 245,-158.5 245,-8 8,-8"/>
<text text-anchor="middle" x="126.5" y="-141.2" font-family="Helvetica,sans-Serif" font-size="14.00">Replication hierarchy</text>
</g>
<!-- nodeR1 -->
<g id="node1" class="node">
<title>nodeR1</title>
<polygon fill="lightblue" stroke="black" points="16.5,-89.5 16.5,-125.5 119.5,-125.5 119.5,-89.5 16.5,-89.5"/>
<text text-anchor="middle" x="30.88" y="-102.45" font-family="Helvetica,sans-Serif" font-size="14.00">r1</text>
<polyline fill="none" stroke="black" points="45.25,-89.5 45.25,-125.5"/>
<text text-anchor="middle" x="58.12" y="-102.45" font-family="Helvetica,sans-Serif" font-size="14.00">A</text>
<polyline fill="none" stroke="black" points="71,-89.5 71,-125.5"/>
<text text-anchor="middle" x="83.12" y="-102.45" font-family="Helvetica,sans-Serif" font-size="14.00">b</text>
<polyline fill="none" stroke="black" points="95.25,-89.5 95.25,-125.5"/>
<text text-anchor="middle" x="107.38" y="-102.45" font-family="Helvetica,sans-Serif" font-size="14.00">d</text>
</g>
<!-- nodeR4 -->
<g id="node4" class="node">
<title>nodeR4</title>
<polygon fill="lightcyan" stroke="black" points="23,-16.5 23,-52.5 77,-52.5 77,-16.5 23,-16.5"/>
<text text-anchor="middle" x="37.38" y="-29.45" font-family="Helvetica,sans-Serif" font-size="14.00">r4</text>
<polyline fill="none" stroke="black" points="51.75,-16.5 51.75,-52.5"/>
<text text-anchor="middle" x="64" y="-29.45" font-family="Helvetica,sans-Serif" font-size="14.00">J</text>
</g>
<!-- nodeR1&#45;&gt;nodeR4 -->
<g id="edge2" class="edge">
<title>nodeR1&#45;&gt;nodeR4</title>
<path fill="none" stroke="black" d="M60.87,-78.37C58.65,-69.63 56.28,-60.27 54.32,-52.53"/>
<polygon fill="black" stroke="black" points="57.42,-79.01 63.27,-87.85 64.21,-77.29 57.42,-79.01"/>
</g>
<!-- nodeR2 -->
<g id="node2" class="node">
<title>nodeR2</title>
<polygon fill="#eedd82" stroke="black" points="137.38,-89.5 137.38,-125.5 236.62,-125.5 236.62,-89.5 137.38,-89.5"/>
<text text-anchor="middle" x="151.75" y="-102.45" font-family="Helvetica,sans-Serif" font-size="14.00">r2</text>
<polyline fill="none" stroke="black" points="166.12,-89.5 166.12,-125.5"/>
<text text-anchor="middle" x="179.38" y="-102.45" font-family="Helvetica,sans-Serif" font-size="14.00">D</text>
<polyline fill="none" stroke="black" points="192.62,-89.5 192.62,-125.5"/>
<text text-anchor="middle" x="202.88" y="-102.45" font-family="Helvetica,sans-Serif" font-size="14.00">f</text>
<polyline fill="none" stroke="black" points="213.12,-89.5 213.12,-125.5"/>
<text text-anchor="middle" x="224.88" y="-102.45" font-family="Helvetica,sans-Serif" font-size="14.00">h</text>
</g>
<!-- nodeR3 -->
<g id="node3" class="node">
<title>nodeR3</title>
<polygon fill="lightcoral" stroke="black" points="94.75,-16.5 94.75,-52.5 237.25,-52.5 237.25,-16.5 94.75,-16.5"/>
<text text-anchor="middle" x="109.12" y="-29.45" font-family="Helvetica,sans-Serif" font-size="14.00">r3</text>
<polyline fill="none" stroke="black" points="123.5,-16.5 123.5,-52.5"/>
<text text-anchor="middle" x="137.12" y="-29.45" font-family="Helvetica,sans-Serif" font-size="14.00">G</text>
<polyline fill="none" stroke="black" points="150.75,-16.5 150.75,-52.5"/>
<text text-anchor="middle" x="160.25" y="-29.45" font-family="Helvetica,sans-Serif" font-size="14.00">i</text>
<polyline fill="none" stroke="black" points="169.75,-16.5 169.75,-52.5"/>
<text text-anchor="middle" x="182.62" y="-29.45" font-family="Helvetica,sans-Serif" font-size="14.00">H</text>
<polyline fill="none" stroke="black" points="195.5,-16.5 195.5,-52.5"/>
<text text-anchor="middle" x="205" y="-29.45" font-family="Helvetica,sans-Serif" font-size="14.00">j</text>
<polyline fill="none" stroke="black" points="214.5,-16.5 214.5,-52.5"/>
<text text-anchor="middle" x="225.88" y="-29.45" font-family="Helvetica,sans-Serif" font-size="14.00">k</text>
</g>
<!-- nodeR2&#45;&gt;nodeR3 -->
<g id="edge1" class="edge">
<title>nodeR2&#45;&gt;nodeR3</title>
<path fill="none" stroke="black" d="M178.68,-78.37C176.1,-69.63 173.33,-60.27 171.04,-52.53"/>
<polygon fill="black" stroke="black" points="175.29,-79.26 181.49,-87.86 182.01,-77.28 175.29,-79.26"/>
</g>
</g>
</svg>
