<?xml version="1.0" encoding="UTF-8" standalone="no"?>
<!DOCTYPE svg PUBLIC "-//W3C//DTD SVG 1.1//EN"
 "http://www.w3.org/Graphics/SVG/1.1/DTD/svg11.dtd">
<!-- Generated by graphviz version 12.0.0 (20240704.0754)
 -->
<!-- Title: g Pages: 1 -->
<svg width="640pt" height="445pt"
 viewBox="0.00 0.00 640.00 444.50" xmlns="http://www.w3.org/2000/svg" xmlns:xlink="http://www.w3.org/1999/xlink">
<g id="graph0" class="graph" transform="scale(1 1) rotate(0) translate(4 440.5)">
<title>g</title>
<polygon fill="white" stroke="none" points="-4,4 -4,-440.5 636,-440.5 636,4 -4,4"/>
<g id="clust1" class="cluster">
<title>cluster_EntityHierarchy</title>
<polygon fill="none" stroke="black" points="8,-8 8,-428.5 428,-428.5 428,-8 8,-8"/>
<text text-anchor="middle" x="218" y="-411.2" font-family="Helvetica,sans-Serif" font-size="14.00">Entity hierarchy</text>
</g>
<g id="clust2" class="cluster">
<title>cluster_RplHierarchy</title>
<polygon fill="none" stroke="black" points="436,-109.5 436,-407 624,-407 624,-109.5 436,-109.5"/>
<text text-anchor="middle" x="530" y="-389.7" font-family="Helvetica,sans-Serif" font-size="14.00">Replication hierarchy</text>
</g>
<!-- entA -->
<g id="node1" class="node">
<title>entA</title>
<polygon fill="lightblue" stroke="none" points="96.5,-320 96.5,-392 113.5,-392 113.5,-320 96.5,-320"/>
<polygon fill="none" stroke="black" points="96.5,-320 96.5,-392 113.5,-392 113.5,-320 96.5,-320"/>
<text text-anchor="start" x="100.12" y="-350.95" font-family="Helvetica,sans-Serif" font-size="14.00">A</text>
<polygon fill="lightblue" stroke="none" points="113.5,-368 113.5,-392 237.5,-392 237.5,-368 113.5,-368"/>
<polygon fill="none" stroke="black" points="113.5,-368 113.5,-392 237.5,-392 237.5,-368 113.5,-368"/>
<text text-anchor="start" x="117.38" y="-374.7" font-family="Helvetica,sans-Serif" font-size="14.00">r1: RplComponent</text>
<polygon fill="none" stroke="black" points="113.5,-344 113.5,-368 237.5,-368 237.5,-344 113.5,-344"/>
<text text-anchor="start" x="117.5" y="-350.7" font-family="Helvetica,sans-Serif" font-size="14.00">a</text>
<polygon fill="lightblue" stroke="none" points="113.5,-320 113.5,-344 237.5,-344 237.5,-320 113.5,-320"/>
<polygon fill="none" stroke="black" points="113.5,-320 113.5,-344 237.5,-344 237.5,-320 113.5,-320"/>
<text text-anchor="start" x="117.5" y="-326.7" font-family="Helvetica,sans-Serif" font-size="14.00">b</text>
</g>
<!-- entB -->
<g id="node2" class="node">
<title>entB</title>
<polygon fill="none" stroke="black" points="26.5,-216 26.5,-264 43.5,-264 43.5,-216 26.5,-216"/>
<text text-anchor="start" x="30.12" y="-234.95" font-family="Helvetica,sans-Serif" font-size="14.00">B</text>
<polygon fill="none" stroke="black" points="43.5,-240 43.5,-264 59.5,-264 59.5,-240 43.5,-240"/>
<text text-anchor="start" x="47.5" y="-246.7" font-family="Helvetica,sans-Serif" font-size="14.00">c</text>
<polygon fill="lightblue" stroke="none" points="43.5,-216 43.5,-240 59.5,-240 59.5,-216 43.5,-216"/>
<polygon fill="none" stroke="black" points="43.5,-216 43.5,-240 59.5,-240 59.5,-216 43.5,-216"/>
<text text-anchor="start" x="47.38" y="-222.7" font-family="Helvetica,sans-Serif" font-size="14.00">d</text>
</g>
<!-- entA&#45;&gt;entB -->
<g id="edge1" class="edge">
<title>entA&#45;&gt;entB</title>
<path fill="none" stroke="black" d="M110.92,-308.95C100.12,-299.6 89.05,-289.66 79,-280 75.01,-276.17 70.92,-271.99 66.98,-267.84"/>
<polygon fill="black" stroke="black" points="108.48,-311.47 118.35,-315.32 113.04,-306.16 108.48,-311.47"/>
</g>
<!-- entC -->
<g id="node3" class="node">
<title>entC</title>
<polygon fill="none" stroke="black" points="96,-216 96,-264 114,-264 114,-216 96,-216"/>
<text text-anchor="start" x="99.75" y="-234.95" font-family="Helvetica,sans-Serif" font-size="14.00">C</text>
<polygon fill="#eedd82" stroke="none" points="114,-240 114,-264 238,-264 238,-240 114,-240"/>
<polygon fill="none" stroke="black" points="114,-240 114,-264 238,-264 238,-240 114,-240"/>
<text text-anchor="start" x="117.88" y="-246.7" font-family="Helvetica,sans-Serif" font-size="14.00">r2: RplComponent</text>
<polygon fill="none" stroke="black" points="114,-216 114,-240 238,-240 238,-216 114,-216"/>
<text text-anchor="start" x="118" y="-222.7" font-family="Helvetica,sans-Serif" font-size="14.00">e</text>
</g>
<!-- entA&#45;&gt;entC -->
<g id="edge2" class="edge">
<title>entA&#45;&gt;entC</title>
<path fill="none" stroke="black" d="M167,-304.66C167,-292 167,-278.9 167,-267.89"/>
<polygon fill="black" stroke="black" points="163.5,-304.57 167,-314.57 170.5,-304.57 163.5,-304.57"/>
</g>
<!-- entJ -->
<g id="node10" class="node">
<title>entJ</title>
<polygon fill="lightcyan" stroke="none" points="272.5,-204 272.5,-276 287.5,-276 287.5,-204 272.5,-204"/>
<polygon fill="none" stroke="black" points="272.5,-204 272.5,-276 287.5,-276 287.5,-204 272.5,-204"/>
<text text-anchor="start" x="276.25" y="-234.95" font-family="Helvetica,sans-Serif" font-size="14.00">J</text>
<polygon fill="lightcyan" stroke="none" points="287.5,-252 287.5,-276 411.5,-276 411.5,-252 287.5,-252"/>
<polygon fill="none" stroke="black" points="287.5,-252 287.5,-276 411.5,-276 411.5,-252 287.5,-252"/>
<text text-anchor="start" x="291.38" y="-258.7" font-family="Helvetica,sans-Serif" font-size="14.00">r4: RplComponent</text>
<polygon fill="none" stroke="black" points="287.5,-228 287.5,-252 411.5,-252 411.5,-228 287.5,-228"/>
<text text-anchor="start" x="291.5" y="-234.7" font-family="Helvetica,sans-Serif" font-size="14.00">l</text>
<polygon fill="none" stroke="black" points="287.5,-204 287.5,-228 411.5,-228 411.5,-204 287.5,-204"/>
<text text-anchor="start" x="291.5" y="-210.7" font-family="Helvetica,sans-Serif" font-size="14.00">m</text>
</g>
<!-- entA&#45;&gt;entJ -->
<g id="edge9" class="edge">
<title>entA&#45;&gt;entJ</title>
<path fill="none" stroke="black" d="M236.11,-309.98C251.36,-300.04 267.39,-289.6 282.24,-279.93"/>
<polygon fill="black" stroke="black" points="234.47,-306.87 228,-315.26 238.29,-312.73 234.47,-306.87"/>
</g>
<!-- entD -->
<g id="node4" class="node">
<title>entD</title>
<polygon fill="#eedd82" stroke="black" points="126,-118 126,-154 180,-154 180,-118 126,-118"/>
<text text-anchor="middle" x="140.75" y="-130.95" font-family="Helvetica,sans-Serif" font-size="14.00">D</text>
<polyline fill="none" stroke="black" points="155.5,-118 155.5,-154"/>
<text text-anchor="middle" x="167.75" y="-130.95" font-family="Helvetica,sans-Serif" font-size="14.00">f</text>
</g>
<!-- entC&#45;&gt;entD -->
<g id="edge3" class="edge">
<title>entC&#45;&gt;entD</title>
<path fill="none" stroke="black" d="M161.78,-200.96C159.58,-184.94 157.13,-167.1 155.38,-154.34"/>
<polygon fill="black" stroke="black" points="158.29,-201.27 163.12,-210.7 165.22,-200.32 158.29,-201.27"/>
</g>
<!-- entG -->
<g id="node7" class="node">
<title>entG</title>
<polygon fill="lightcoral" stroke="none" points="206.5,-112 206.5,-160 225.5,-160 225.5,-112 206.5,-112"/>
<polygon fill="none" stroke="black" points="206.5,-112 206.5,-160 225.5,-160 225.5,-112 206.5,-112"/>
<text text-anchor="start" x="210.38" y="-130.95" font-family="Helvetica,sans-Serif" font-size="14.00">G</text>
<polygon fill="lightcoral" stroke="none" points="225.5,-136 225.5,-160 349.5,-160 349.5,-136 225.5,-136"/>
<polygon fill="none" stroke="black" points="225.5,-136 225.5,-160 349.5,-160 349.5,-136 225.5,-136"/>
<text text-anchor="start" x="229.38" y="-142.7" font-family="Helvetica,sans-Serif" font-size="14.00">r3: RplComponent</text>
<polygon fill="lightcoral" stroke="none" points="225.5,-112 225.5,-136 349.5,-136 349.5,-112 225.5,-112"/>
<polygon fill="none" stroke="black" points="225.5,-112 225.5,-136 349.5,-136 349.5,-112 225.5,-112"/>
<text text-anchor="start" x="229.5" y="-118.7" font-family="Helvetica,sans-Serif" font-size="14.00">i</text>
</g>
<!-- entC&#45;&gt;entG -->
<g id="edge6" class="edge">
<title>entC&#45;&gt;entG</title>
<path fill="none" stroke="black" d="M204.41,-204.62C218.83,-191.37 235.09,-176.43 248.65,-163.97"/>
<polygon fill="black" stroke="black" points="202.27,-201.83 197.28,-211.18 207.01,-206.99 202.27,-201.83"/>
</g>
<!-- entE -->
<g id="node5" class="node">
<title>entE</title>
<polygon fill="none" stroke="black" points="78.5,-20 78.5,-68 95.5,-68 95.5,-20 78.5,-20"/>
<text text-anchor="start" x="82.12" y="-38.95" font-family="Helvetica,sans-Serif" font-size="14.00">E</text>
<polygon fill="none" stroke="black" points="95.5,-44 95.5,-68 111.5,-68 111.5,-44 95.5,-44"/>
<text text-anchor="start" x="99.38" y="-50.7" font-family="Helvetica,sans-Serif" font-size="14.00">g</text>
<polygon fill="#eedd82" stroke="none" points="95.5,-20 95.5,-44 111.5,-44 111.5,-20 95.5,-20"/>
<polygon fill="none" stroke="black" points="95.5,-20 95.5,-44 111.5,-44 111.5,-20 95.5,-20"/>
<text text-anchor="start" x="99.5" y="-26.7" font-family="Helvetica,sans-Serif" font-size="14.00">h</text>
</g>
<!-- entD&#45;&gt;entE -->
<g id="edge4" class="edge">
<title>entD&#45;&gt;entE</title>
<path fill="none" stroke="black" d="M135.7,-108.15C128.31,-96.69 119.7,-83.33 112.31,-71.87"/>
<polygon fill="black" stroke="black" points="132.64,-109.87 141,-116.37 138.52,-106.07 132.64,-109.87"/>
</g>
<!-- entF -->
<g id="node6" class="node">
<title>entF</title>
<polygon fill="none" stroke="black" points="140,-26 140,-62 194,-62 194,-26 140,-26"/>
<text text-anchor="middle" x="167" y="-38.95" font-family="Helvetica,sans-Serif" font-size="14.00">F</text>
</g>
<!-- entD&#45;&gt;entF -->
<g id="edge5" class="edge">
<title>entD&#45;&gt;entF</title>
<path fill="none" stroke="black" d="M157.4,-106.7C159.67,-92.14 162.35,-74.86 164.31,-62.3"/>
<polygon fill="black" stroke="black" points="154.01,-105.73 155.93,-116.15 160.93,-106.81 154.01,-105.73"/>
</g>
<!-- entH -->
<g id="node8" class="node">
<title>entH</title>
<polygon fill="lightcoral" stroke="none" points="249.5,-20 249.5,-68 266.5,-68 266.5,-20 249.5,-20"/>
<polygon fill="none" stroke="black" points="249.5,-20 249.5,-68 266.5,-68 266.5,-20 249.5,-20"/>
<text text-anchor="start" x="253.12" y="-38.95" font-family="Helvetica,sans-Serif" font-size="14.00">H</text>
<polygon fill="lightcoral" stroke="none" points="266.5,-44 266.5,-68 280.5,-68 280.5,-44 266.5,-44"/>
<polygon fill="none" stroke="black" points="266.5,-44 266.5,-68 280.5,-68 280.5,-44 266.5,-44"/>
<text text-anchor="start" x="270.5" y="-50.7" font-family="Helvetica,sans-Serif" font-size="14.00">j</text>
<polygon fill="lightcoral" stroke="none" points="266.5,-20 266.5,-44 280.5,-44 280.5,-20 266.5,-20"/>
<polygon fill="none" stroke="black" points="266.5,-20 266.5,-44 280.5,-44 280.5,-20 266.5,-20"/>
<text text-anchor="start" x="270.12" y="-26.7" font-family="Helvetica,sans-Serif" font-size="14.00">k</text>
</g>
<!-- entG&#45;&gt;entH -->
<g id="edge7" class="edge">
<title>entG&#45;&gt;entH</title>
<path fill="none" stroke="black" d="M272.55,-97.24C271.32,-88.74 270.04,-79.9 268.89,-71.95"/>
<polygon fill="black" stroke="black" points="269.06,-97.59 273.95,-106.99 275.99,-96.59 269.06,-97.59"/>
</g>
<!-- entI -->
<g id="node9" class="node">
<title>entI</title>
<polygon fill="none" stroke="black" points="310,-26 310,-62 364,-62 364,-26 310,-26"/>
<text text-anchor="middle" x="336.75" y="-38.95" font-family="Helvetica,sans-Serif" font-size="14.00">I</text>
</g>
<!-- entG&#45;&gt;entI -->
<g id="edge8" class="edge">
<title>entG&#45;&gt;entI</title>
<path fill="none" stroke="black" d="M301.57,-99.05C309.89,-86.36 318.86,-72.67 325.69,-62.25"/>
<polygon fill="black" stroke="black" points="298.77,-96.94 296.21,-107.22 304.62,-100.77 298.77,-96.94"/>
</g>
<!-- nodeR1 -->
<g id="node11" class="node">
<title>nodeR1</title>
<polygon fill="lightblue" stroke="black" points="478.5,-338 478.5,-374 581.5,-374 581.5,-338 478.5,-338"/>
<text text-anchor="middle" x="492.88" y="-350.95" font-family="Helvetica,sans-Serif" font-size="14.00">r1</text>
<polyline fill="none" stroke="black" points="507.25,-338 507.25,-374"/>
<text text-anchor="middle" x="520.12" y="-350.95" font-family="Helvetica,sans-Serif" font-size="14.00">A</text>
<polyline fill="none" stroke="black" points="533,-338 533,-374"/>
<text text-anchor="middle" x="545.12" y="-350.95" font-family="Helvetica,sans-Serif" font-size="14.00">b</text>
<polyline fill="none" stroke="black" points="557.25,-338 557.25,-374"/>
<text text-anchor="middle" x="569.38" y="-350.95" font-family="Helvetica,sans-Serif" font-size="14.00">d</text>
</g>
<!-- nodeR2 -->
<g id="node12" class="node">
<title>nodeR2</title>
<polygon fill="#eedd82" stroke="black" points="444.38,-222 444.38,-258 543.62,-258 543.62,-222 444.38,-222"/>
<text text-anchor="middle" x="458.75" y="-234.95" font-family="Helvetica,sans-Serif" font-size="14.00">r2</text>
<polyline fill="none" stroke="black" points="473.12,-222 473.12,-258"/>
<text text-anchor="middle" x="486.38" y="-234.95" font-family="Helvetica,sans-Serif" font-size="14.00">D</text>
<polyline fill="none" stroke="black" points="499.62,-222 499.62,-258"/>
<text text-anchor="middle" x="509.88" y="-234.95" font-family="Helvetica,sans-Serif" font-size="14.00">f</text>
<polyline fill="none" stroke="black" points="520.12,-222 520.12,-258"/>
<text text-anchor="middle" x="531.88" y="-234.95" font-family="Helvetica,sans-Serif" font-size="14.00">h</text>
</g>
<!-- nodeR1&#45;&gt;nodeR2 -->
<g id="edge10" class="edge">
<title>nodeR1&#45;&gt;nodeR2</title>
<path fill="none" stroke="black" d="M521.15,-326.96C514.38,-305.55 505.27,-276.7 499.52,-258.48"/>
<polygon fill="black" stroke="black" points="517.73,-327.76 524.08,-336.24 524.4,-325.65 517.73,-327.76"/>
</g>
<!-- nodeR4 -->
<g id="node14" class="node">
<title>nodeR4</title>
<polygon fill="lightcyan" stroke="black" points="562,-222 562,-258 616,-258 616,-222 562,-222"/>
<text text-anchor="middle" x="576.38" y="-234.95" font-family="Helvetica,sans-Serif" font-size="14.00">r4</text>
<polyline fill="none" stroke="black" points="590.75,-222 590.75,-258"/>
<text text-anchor="middle" x="603" y="-234.95" font-family="Helvetica,sans-Serif" font-size="14.00">J</text>
</g>
<!-- nodeR1&#45;&gt;nodeR4 -->
<g id="edge12" class="edge">
<title>nodeR1&#45;&gt;nodeR4</title>
<path fill="none" stroke="black" d="M544.2,-327.55C555.32,-306.08 570.44,-276.87 579.95,-258.48"/>
<polygon fill="black" stroke="black" points="541.14,-325.85 539.66,-336.34 547.36,-329.07 541.14,-325.85"/>
</g>
<!-- nodeR3 -->
<g id="node13" class="node">
<title>nodeR3</title>
<polygon fill="lightcoral" stroke="black" points="443.75,-118 443.75,-154 586.25,-154 586.25,-118 443.75,-118"/>
<text text-anchor="middle" x="458.12" y="-130.95" font-family="Helvetica,sans-Serif" font-size="14.00">r3</text>
<polyline fill="none" stroke="black" points="472.5,-118 472.5,-154"/>
<text text-anchor="middle" x="486.12" y="-130.95" font-family="Helvetica,sans-Serif" font-size="14.00">G</text>
<polyline fill="none" stroke="black" points="499.75,-118 499.75,-154"/>
<text text-anchor="middle" x="509.25" y="-130.95" font-family="Helvetica,sans-Serif" font-size="14.00">i</text>
<polyline fill="none" stroke="black" points="518.75,-118 518.75,-154"/>
<text text-anchor="middle" x="531.62" y="-130.95" font-family="Helvetica,sans-Serif" font-size="14.00">H</text>
<polyline fill="none" stroke="black" points="544.5,-118 544.5,-154"/>
<text text-anchor="middle" x="554" y="-130.95" font-family="Helvetica,sans-Serif" font-size="14.00">j</text>
<polyline fill="none" stroke="black" points="563.5,-118 563.5,-154"/>
<text text-anchor="middle" x="574.88" y="-130.95" font-family="Helvetica,sans-Serif" font-size="14.00">k</text>
</g>
<!-- nodeR2&#45;&gt;nodeR3 -->
<g id="edge11" class="edge">
<title>nodeR2&#45;&gt;nodeR3</title>
<path fill="none" stroke="black" d="M499.84,-210.65C503.55,-192.6 508.25,-169.8 511.42,-154.39"/>
<polygon fill="black" stroke="black" points="496.46,-209.71 497.87,-220.21 503.31,-211.13 496.46,-209.71"/>
</g>
</g>
</svg>
