<?xml version="1.0" encoding="UTF-8" standalone="no"?>
<!DOCTYPE svg PUBLIC "-//W3C//DTD SVG 1.1//EN"
 "http://www.w3.org/Graphics/SVG/1.1/DTD/svg11.dtd">
<!-- Generated by graphviz version 12.0.0 (20240704.0754)
 -->
<!-- Title: states Pages: 1 -->
<svg width="227pt" height="125pt"
 viewBox="0.00 0.00 227.00 124.55" xmlns="http://www.w3.org/2000/svg" xmlns:xlink="http://www.w3.org/1999/xlink">
<g id="graph0" class="graph" transform="scale(1 1) rotate(0) translate(4 120.55)">
<title>states</title>
<polygon fill="white" stroke="none" points="-4,4 -4,-120.55 223,-120.55 223,4 -4,4"/>
<!-- server -->
<g id="node1" class="node">
<title>server</title>
<polygon fill="none" stroke="black" points="54,-74.8 0,-74.8 0,-38.8 54,-38.8 54,-74.8"/>
<text text-anchor="middle" x="27" y="-51.37" font-family="Times New Roman,serif" font-size="14.00">Server</text>
</g>
<!-- client1 -->
<g id="node2" class="node">
<title>client1</title>
<polygon fill="none" stroke="black" points="219,-107.8 165,-107.8 165,-71.8 219,-71.8 219,-107.8"/>
<text text-anchor="middle" x="192" y="-84.37" font-family="Times New Roman,serif" font-size="14.00">Client</text>
</g>
<!-- server&#45;&gt;client1 -->
<g id="edge1" class="edge">
<title>server&#45;&gt;client1</title>
<path fill="none" stroke="black" d="M44.13,-75.11C51.76,-82.41 61.5,-89.97 72,-93.8 98.04,-103.29 129.44,-101.74 153.45,-98.11"/>
<polygon fill="black" stroke="black" points="153.82,-101.6 163.09,-96.46 152.64,-94.7 153.82,-101.6"/>
<text text-anchor="middle" x="109.5" y="-103.25" font-family="Times New Roman,serif" font-size="14.00">RPCs + state</text>
</g>
<!-- client2 -->
<g id="node3" class="node">
<title>client2</title>
<polygon fill="none" stroke="black" points="219,-41.8 165,-41.8 165,-5.8 219,-5.8 219,-41.8"/>
<text text-anchor="middle" x="192" y="-18.37" font-family="Times New Roman,serif" font-size="14.00">Client</text>
</g>
<!-- server&#45;&gt;client2 -->
<g id="edge2" class="edge">
<title>server&#45;&gt;client2</title>
<path fill="none" stroke="black" d="M54.15,-44.97C59.94,-42.72 66.1,-40.59 72,-39.05 98.72,-32.07 129.69,-28.23 153.33,-26.15"/>
<polygon fill="black" stroke="black" points="153.44,-29.65 163.12,-25.36 152.88,-22.67 153.44,-29.65"/>
<text text-anchor="middle" x="109.5" y="-41.25" font-family="Times New Roman,serif" font-size="14.00">RPCs + state</text>
</g>
<!-- client1&#45;&gt;server -->
<g id="edge3" class="edge">
<title>client1&#45;&gt;server</title>
<path fill="none" stroke="black" d="M164.74,-79.43C158.96,-77.42 152.83,-75.5 147,-74.05 120.14,-67.36 89.18,-62.97 65.57,-60.3"/>
<polygon fill="black" stroke="black" points="66.11,-56.84 55.8,-59.25 65.36,-63.8 66.11,-56.84"/>
<text text-anchor="middle" x="109.5" y="-76.25" font-family="Times New Roman,serif" font-size="14.00">RPCs</text>
</g>
<!-- client2&#45;&gt;server -->
<g id="edge4" class="edge">
<title>client2&#45;&gt;server</title>
<path fill="none" stroke="black" d="M164.77,-12.18C139.86,-2.94 101.86,6.41 72,-7.05 61.39,-11.83 52.3,-20.57 45.19,-29.41"/>
<polygon fill="black" stroke="black" points="42.52,-27.15 39.41,-37.28 48.16,-31.29 42.52,-27.15"/>
<text text-anchor="middle" x="109.5" y="-9.25" font-family="Times New Roman,serif" font-size="14.00">RPCs</text>
</g>
</g>
</svg>
