<?xml version="1.0" encoding="UTF-8" standalone="no"?>
<!DOCTYPE svg PUBLIC "-//W3C//DTD SVG 1.1//EN"
 "http://www.w3.org/Graphics/SVG/1.1/DTD/svg11.dtd">
<!-- Generated by graphviz version 12.0.0 (20240704.0754)
 -->
<!-- Title: GameModes Pages: 1 -->
<svg width="374pt" height="188pt"
 viewBox="0.00 0.00 373.98 188.00" xmlns="http://www.w3.org/2000/svg" xmlns:xlink="http://www.w3.org/1999/xlink">
<g id="graph0" class="graph" transform="scale(1 1) rotate(0) translate(4 184)">
<title>GameModes</title>
<polygon fill="white" stroke="none" points="-4,4 -4,-184 369.98,-184 369.98,4 -4,4"/>
<!-- BaseSystem -->
<g id="node1" class="node">
<title>BaseSystem</title>
<ellipse fill="none" stroke="black" cx="172.51" cy="-162" rx="56.05" ry="18"/>
<text text-anchor="middle" x="172.51" y="-156.57" font-family="Times New Roman,serif" font-size="14.00">BaseSystem</text>
</g>
<!-- GameMode -->
<g id="node2" class="node">
<title>GameMode</title>
<ellipse fill="none" stroke="black" cx="172.51" cy="-90" rx="54.56" ry="18"/>
<text text-anchor="middle" x="172.51" y="-84.58" font-family="Times New Roman,serif" font-size="14.00">GameMode</text>
</g>
<!-- GameMode&#45;&gt;BaseSystem -->
<g id="edge1" class="edge">
<title>GameMode&#45;&gt;BaseSystem</title>
<path fill="none" stroke="black" d="M172.51,-108.3C172.51,-115.59 172.51,-124.27 172.51,-132.46"/>
<polygon fill="black" stroke="black" points="169.01,-132.38 172.51,-142.38 176.01,-132.38 169.01,-132.38"/>
</g>
<!-- DeathmatchMode -->
<g id="node3" class="node">
<title>DeathmatchMode</title>
<ellipse fill="none" stroke="black" cx="76.51" cy="-18" rx="76.51" ry="18"/>
<text text-anchor="middle" x="76.51" y="-12.57" font-family="Times New Roman,serif" font-size="14.00">DeathmatchMode</text>
</g>
<!-- DeathmatchMode&#45;&gt;GameMode -->
<g id="edge2" class="edge">
<title>DeathmatchMode&#45;&gt;GameMode</title>
<path fill="none" stroke="black" d="M99.26,-35.59C111.97,-44.85 127.97,-56.52 141.78,-66.59"/>
<polygon fill="black" stroke="black" points="139.55,-69.3 149.69,-72.36 143.67,-63.64 139.55,-69.3"/>
</g>
<!-- TeamDeathmatchMode -->
<g id="node4" class="node">
<title>TeamDeathmatchMode</title>
<ellipse fill="none" stroke="black" cx="268.51" cy="-18" rx="97.47" ry="18"/>
<text text-anchor="middle" x="268.51" y="-12.57" font-family="Times New Roman,serif" font-size="14.00">TeamDeathmatchMode</text>
</g>
<!-- TeamDeathmatchMode&#45;&gt;GameMode -->
<g id="edge3" class="edge">
<title>TeamDeathmatchMode&#45;&gt;GameMode</title>
<path fill="none" stroke="black" d="M245.27,-35.95C232.65,-45.15 216.88,-56.65 203.25,-66.59"/>
<polygon fill="black" stroke="black" points="201.46,-63.56 195.44,-72.28 205.59,-69.22 201.46,-63.56"/>
</g>
</g>
</svg>
